<svg xmlns="http://www.w3.org/2000/svg" width="616.0281982421875" height="91.82366943359375" viewBox="-286.9788818359375 48.69569396972656 616.0281982421875 91.82366943359375"><title>Neo4j Graph Visualization</title><desc>Created using Neo4j (http://www.neo4j.com/)</desc><g class="layer relationships"><g class="relationship" transform="translate(300.0492924624649 93.54923116859555) rotate(539.4669160497475)"><path class="outline" fill="#A5ABB6" stroke="none" d="M 21.40063509461097,12.933012701892217 L 21.90063509461097,12.06698729810778 A 182.51751508159174 182.51751508159174 0 0 0 99.46823482087441,36.00546693829534 L 99.39322197726644,37.00264950597983 A 183.51751508159174 183.51751508159174 0 0 1 21.40063509461097,12.933012701892217 Z M 121.44931136110363,37.33236448481193 L 121.40413900400185,36.33338527674309 A 182.51751508159174 182.51751508159174 0 0 0 199.65262782606948,14.724189737800529 L 198.23095766221704,12.082437678047048 L 206.053660992803,11.847251365437065 L 201.5481880445394,18.246525817471834 L 200.12651788068695,15.604773757718355 A 183.51751508159174 183.51751508159174 0 0 1 121.44931136110363,37.33236448481193"/><text text-anchor="middle" pointer-events="none" font-size="8px" fill="#000000" x="110.42378190769192" y="39.9992515963653" transform="rotate(180 110.42378190769192 36.9992515963653)" font-family="sans-serif">road</text></g><g class="relationship" transform="translate(71.99090234723229 95.67116365123623) rotate(539.0988494181458)"><path class="outline" fill="#A5ABB6" stroke="none" d="M 25 0.5 L 62.92686599986166 0.5 L 62.92686599986166 -0.5 L 25 -0.5 Z M 82.26280349986166 0.5 L 120.18966949972332 0.5 L 120.18966949972332 3.5 L 127.18966949972332 0 L 120.18966949972332 -3.5 L 120.18966949972332 -0.5 L 82.26280349986166 -0.5 Z"/><text text-anchor="middle" pointer-events="none" font-size="8px" fill="#000000" x="72.59483474986166" y="3" transform="rotate(180 72.59483474986166 0)" font-family="sans-serif">trek</text></g><g class="relationship" transform="translate(-80.1799438554512 98.06471089210373) rotate(539.8448935595898)"><path class="outline" fill="#A5ABB6" stroke="none" d="M 25 0.5 L 75.7318224466013 0.5 L 75.7318224466013 -0.5 L 25 -0.5 Z M 95.0677599466013 0.5 L 145.7995823932026 0.5 L 145.7995823932026 3.5 L 152.7995823932026 0 L 145.7995823932026 -3.5 L 145.7995823932026 -0.5 L 95.0677599466013 -0.5 Z"/><text text-anchor="middle" pointer-events="none" font-size="8px" fill="#000000" x="85.3997911966013" y="3" transform="rotate(180 85.3997911966013 0)" font-family="sans-serif">trek</text></g><g class="relationship" transform="translate(300.0492924624649 93.54923116859555) rotate(539.4669160497475)"><path class="outline" fill="#A5ABB6" stroke="none" d="M 25 0.5 L 79.67084949537434 0.5 L 79.67084949537434 -0.5 L 25 -0.5 Z M 141.39741199537434 0.5 L 196.06826149074868 0.5 L 196.06826149074868 3.5 L 203.06826149074868 0 L 196.06826149074868 -3.5 L 196.06826149074868 -0.5 L 141.39741199537434 -0.5 Z"/><text text-anchor="middle" pointer-events="none" font-size="8px" fill="#000000" x="110.53413074537434" y="3" transform="rotate(180 110.53413074537434 0)" font-family="sans-serif">PublicTransport</text></g><g class="relationship" transform="translate(300.0492924624649 93.54923116859555) rotate(539.4669160497475)"><path class="outline" fill="#A5ABB6" stroke="none" d="M 21.40063509461097,-12.933012701892217 L 21.90063509461097,-12.06698729810778 A 182.51751508159174 182.51751508159174 0 0 1 100.79906520596532,-36.10068786038417 L 100.73134388385596,-37.09839213647592 A 183.51751508159174 183.51751508159174 0 0 0 21.40063509461097,-12.933012701892217 Z M 120.10892552202351,-37.388066285345104 L 120.0710570227496,-36.38878355420104 A 182.51751508159174 182.51751508159174 0 0 1 199.65262782606948,-14.724189737800529 L 198.23095766221704,-12.082437678047048 L 206.053660992803,-11.847251365437065 L 201.5481880445394,-18.246525817471834 L 200.12651788068695,-15.604773757718355 A 183.51751508159174 183.51751508159174 0 0 0 120.10892552202351,-37.388066285345104"/><text text-anchor="middle" pointer-events="none" font-size="8px" fill="#000000" x="110.42378190769192" y="-33.9992515963653" transform="rotate(180 110.42378190769192 -36.9992515963653)" font-family="sans-serif">trek</text></g></g><g class="layer nodes"><g class="node" transform="translate(300.0492924624649,93.54923116859555)"><circle class="outline" cx="0" cy="0" r="25" fill="#F16667" stroke="#eb2728" stroke-width="2px"/><text text-anchor="middle" pointer-events="none" font-family="sans-serif" dy="1.5625" font-size="25" fill="#FFFFFF"/><text text-anchor="middle" pointer-events="none" x="0" y="5" font-size="10px" fill="#FFFFFF" font-family="sans-serif"> Darjeeling</text></g><g class="node" transform="translate(-257.9788747479739,98.54603476764592)"><circle class="outline" cx="0" cy="0" r="25" fill="#D9C8AE" stroke="#c0a378" stroke-width="2px"/><text text-anchor="middle" pointer-events="none" font-family="sans-serif" dy="1.5625" font-size="25" fill="#2A2C34"/><text text-anchor="middle" pointer-events="none" x="0" y="5" font-size="10px" fill="#2A2C34" font-family="sans-serif"> Sandak…</text></g><g class="node" transform="translate(71.99090234723229,95.67116365123623)"><circle class="outline" cx="0" cy="0" r="25" fill="#F16667" stroke="#eb2728" stroke-width="2px"/><text text-anchor="middle" pointer-events="none" font-family="sans-serif" dy="1.5625" font-size="25" fill="#FFFFFF"/><text text-anchor="middle" pointer-events="none" x="0" y="5" font-size="10px" fill="#FFFFFF" font-family="sans-serif"> Rimbik</text></g><g class="node" transform="translate(-80.1799438554512,98.06471089210373)"><circle class="outline" cx="0" cy="0" r="25" fill="#8DCC93" stroke="#5db665" stroke-width="2px"/><text text-anchor="middle" pointer-events="none" font-family="sans-serif" dy="1.5625" font-size="25" fill="#2A2C34"/><text text-anchor="middle" pointer-events="none" x="0" y="5" font-size="10px" fill="#2A2C34" font-family="sans-serif"> BhikeBh…</text></g></g></svg>