<svg xmlns="http://www.w3.org/2000/svg" width="572.3811645507812" height="311.01495361328125" viewBox="-193.5188446044922 -90.83338928222656 572.3811645507812 311.01495361328125"><title>Neo4j Graph Visualization</title><desc>Created using Neo4j (http://www.neo4j.com/)</desc><g class="layer relationships"><g class="relationship" transform="translate(349.8622937313346 -51.52357805046391) rotate(456.8361374458635)"><path class="outline" fill="#A5ABB6" stroke="none" d="M 24.018736134675446,-6.953439040707552 L 24.277555179777966,-5.987513214418485 A 258.83367568771075 258.83367568771075 0 0 1 79.17450541877112,-14.524350171407377 L 79.12777991247545,-15.52325793845165 A 259.83367568771075 259.83367568771075 0 0 0 24.018736134675446,-6.953439040707552 Z M 98.49564315472682,-15.706531611166213 L 98.46782919576268,-14.70691849416204 A 258.83367568771075 258.83367568771075 0 0 1 153.51649874071322,-7.210471862354834 L 152.79501775165323,-4.298519736645169 L 160.43130053221245,-6.0123415754998275 L 154.4784733927932,-11.093074696634387 L 153.75699240373322,-8.181122570924723 A 259.83367568771075 259.83367568771075 0 0 0 98.49564315472682,-15.706531611166213"/><text text-anchor="middle" pointer-events="none" font-size="8px" fill="#000000" x="88.81473439761682" y="-12.295446727588569" transform="rotate(180 88.81473439761682 -15.295446727588569)" font-family="sans-serif">trek</text></g><g class="relationship" transform="translate(327.87770056113754 131.86090706018155) rotate(512.4929394503058)"><path class="outline" fill="#A5ABB6" stroke="none" d="M 21.40063509461097,-12.933012701892217 L 21.90063509461097,-12.06698729810778 A 81.5314277081905 81.5314277081905 0 0 1 50.9765999748316,-22.14775392929576 L 50.83322276063987,-23.137422042579516 A 82.5314277081905 82.5314277081905 0 0 0 21.40063509461097,-12.933012701892217 Z M 70.23544412596821,-23.642307293560947 L 70.14373245457892,-22.646521689461864 A 81.5314277081905 81.5314277081905 0 0 1 99.70463569176343,-14.09160559460086 L 98.34178870928615,-11.419032283660153 L 106.16778124770462,-11.357058187310665 L 101.52176500173313,-17.65503667585514 L 100.15891801925585,-14.98246336491443 A 82.5314277081905 82.5314277081905 0 0 0 70.23544412596821,-23.642307293560947"/><text text-anchor="middle" pointer-events="none" font-size="8px" fill="#000000" x="60.532446762676116" y="-20.46236786581173" transform="rotate(180 60.532446762676116 -23.46236786581173)" font-family="sans-serif">trek</text></g><g class="relationship" transform="translate(213.958025344707 191.1815800759772) rotate(198.00437567212896)"><path class="outline" fill="#A5ABB6" stroke="none" d="M 21.40063509461097,12.933012701892217 L 21.90063509461097,12.06698729810778 A 69.44380957499106 69.44380957499106 0 0 0 45.097361236768975,20.407632792267705 L 44.93139714701247,21.39376458919513 A 70.44380957499106 70.44380957499106 0 0 1 21.40063509461097,12.933012701892217 Z M 64.33571691063358,21.947146906180038 L 64.22622287453498,20.953159453513337 A 69.44380957499106 69.44380957499106 0 0 0 87.86058662315843,13.948066936545393 L 86.51109066669083,11.26872734189196 L 94.3372950034277,11.245799637229922 L 89.65991456511522,17.520519729416637 L 88.31041860864762,14.841180134763205 A 70.44380957499106 70.44380957499106 0 0 1 64.33571691063358,21.947146906180038"/><text text-anchor="middle" pointer-events="none" font-size="8px" fill="#000000" x="54.628657195106555" y="24.842268140864533" transform="rotate(180 54.628657195106555 21.842268140864533)" font-family="sans-serif">trek</text></g><g class="relationship" transform="translate(103.00565160115531 155.1216002875654) rotate(534.5762852203317)"><path class="outline" fill="#A5ABB6" stroke="none" d="M 25 0.5 L 55.31061195657158 0.5 L 55.31061195657158 -0.5 L 25 -0.5 Z M 74.64654945657158 0.5 L 104.95716141314315 0.5 L 104.95716141314315 3.5 L 111.95716141314315 0 L 104.95716141314315 -3.5 L 104.95716141314315 -0.5 L 74.64654945657158 -0.5 Z"/><text text-anchor="middle" pointer-events="none" font-size="8px" fill="#000000" x="64.97858070657158" y="3" transform="rotate(180 64.97858070657158 0)" font-family="sans-serif">trek</text></g><g class="relationship" transform="translate(349.8622937313346 -51.52357805046391) rotate(456.8361374458635)"><path class="outline" fill="#A5ABB6" stroke="none" d="M 24.018736134675446,6.953439040707552 L 24.277555179777966,5.987513214418485 A 258.83367568771075 258.83367568771075 0 0 0 77.84081959974218,14.458516723745902 L 77.78894141841114,15.457170144258612 A 259.83367568771075 259.83367568771075 0 0 1 24.018736134675446,6.953439040707552 Z M 99.83549253567118,15.6657916294173 L 99.80252201115641,14.66633530495227 A 258.83367568771075 258.83367568771075 0 0 0 153.51649874071322,7.210471862354834 L 152.79501775165323,4.298519736645169 L 160.43130053221245,6.0123415754998275 L 154.4784733927932,11.093074696634387 L 153.75699240373322,8.181122570924723 A 259.83367568771075 259.83367568771075 0 0 1 99.83549253567118,15.6657916294173"/><text text-anchor="middle" pointer-events="none" font-size="8px" fill="#000000" x="88.81473439761685" y="18.29544672758857" transform="rotate(180 88.81473439761685 15.295446727588569)" font-family="sans-serif">road</text></g><g class="relationship" transform="translate(327.87770056113754 131.86090706018155) rotate(512.4929394503058)"><path class="outline" fill="#A5ABB6" stroke="none" d="M 25 0.5 L 37.48719087777195 0.5 L 37.48719087777195 -0.5 L 25 -0.5 Z M 83.95203462777195 0.5 L 96.4392255055439 0.5 L 96.4392255055439 3.5 L 103.4392255055439 0 L 96.4392255055439 -3.5 L 96.4392255055439 -0.5 L 83.95203462777195 -0.5 Z"/><text text-anchor="middle" pointer-events="none" font-size="8px" fill="#000000" x="60.71961275277195" y="3" transform="rotate(180 60.71961275277195 0)" font-family="sans-serif">twowheeler</text></g><g class="relationship" transform="translate(327.87770056113754 131.86090706018155) rotate(512.4929394503058)"><path class="outline" fill="#A5ABB6" stroke="none" d="M 21.40063509461097,12.933012701892217 L 21.90063509461097,12.06698729810778 A 81.5314277081905 81.5314277081905 0 0 0 49.66221581491897,21.946377172584477 L 49.50271740431428,22.93357535786167 A 82.5314277081905 82.5314277081905 0 0 1 21.40063509461097,12.933012701892217 Z M 71.57475063972859,23.507934542302607 L 71.46681113185385,22.51377707859791 A 81.5314277081905 81.5314277081905 0 0 0 99.70463569176343,14.09160559460086 L 98.34178870928615,11.419032283660153 L 106.16778124770462,11.357058187310665 L 101.52176500173313,17.65503667585514 L 100.15891801925585,14.98246336491443 A 82.5314277081905 82.5314277081905 0 0 1 71.57475063972859,23.507934542302607"/><text text-anchor="middle" pointer-events="none" font-size="8px" fill="#000000" x="60.53244676267615" y="26.462367865811743" transform="rotate(180 60.53244676267615 23.462367865811743)" font-family="sans-serif">road</text></g><g class="relationship" transform="translate(213.958025344707 191.1815800759772) rotate(198.00437567212896)"><path class="outline" fill="#A5ABB6" stroke="none" d="M 25 0.5 L 43.82670310443649 0.5 L 43.82670310443649 -0.5 L 25 -0.5 Z M 65.83842185443649 0.5 L 84.66512495887298 0.5 L 84.66512495887298 3.5 L 91.66512495887298 0 L 84.66512495887298 -3.5 L 84.66512495887298 -0.5 L 65.83842185443649 -0.5 Z"/><text text-anchor="middle" pointer-events="none" font-size="8px" fill="#000000" x="54.83256247943649" y="3" transform="rotate(180 54.83256247943649 0)" font-family="sans-serif">road</text></g><g class="relationship" transform="translate(213.958025344707 191.1815800759772) rotate(198.00437567212896)"><path class="outline" fill="#A5ABB6" stroke="none" d="M 21.40063509461097,-12.933012701892217 L 21.90063509461097,-12.06698729810778 A 69.44380957499106 69.44380957499106 0 0 1 32.11579068996261,-16.902740604550488 L 31.76289027533775,-17.838401492563662 A 70.44380957499106 70.44380957499106 0 0 0 21.40063509461097,-12.933012701892217 Z M 77.68544368398818,-19.1480443616111 L 77.38644077757297,-18.1937921612179 A 69.44380957499106 69.44380957499106 0 0 1 87.86058662315843,-13.948066936545393 L 86.51109066669083,-11.26872734189196 L 94.3372950034277,-11.245799637229922 L 89.65991456511522,-17.520519729416637 L 88.31041860864762,-14.841180134763205 A 70.44380957499106 70.44380957499106 0 0 0 77.68544368398818,-19.1480443616111"/><text text-anchor="middle" pointer-events="none" font-size="8px" fill="#000000" x="54.62865719510655" y="-18.842268140864533" transform="rotate(180 54.62865719510655 -21.842268140864533)" font-family="sans-serif">twowheeler</text></g><g class="relationship" transform="translate(349.8622937313346 -51.52357805046391) rotate(511.5305994204622)"><path class="outline" fill="#A5ABB6" stroke="none" d="M 21.40063509461097,12.933012701892217 L 21.90063509461097,12.06698729810778 A 158.87426322304358 158.87426322304358 0 0 0 89.07332307364997,32.87801275172849 L 88.99612716171511,33.87502869502153 A 159.87426322304358 159.87426322304358 0 0 1 21.40063509461097,12.933012701892217 Z M 108.37815846864751,34.197008273333935 L 108.33412141339808,33.19797837500009 A 158.87426322304358 158.87426322304358 0 0 0 176.16099072650653,14.629602303218952 L 174.74811448395243,11.983136599071951 L 182.5715567432752,11.773968687950607 L 178.04482571657863,18.15822324208162 L 176.63194947402454,15.511757537934617 A 159.87426322304358 159.87426322304358 0 0 1 108.37815846864751,34.197008273333935"/><text text-anchor="middle" pointer-events="none" font-size="8px" fill="#000000" x="98.69056332248523" y="36.83011604776321" transform="rotate(180 98.69056332248523 33.83011604776321)" font-family="sans-serif">trek</text></g><g class="relationship" transform="translate(169.9818380701617 46.01918892223547) rotate(481.5450834924262)"><path class="outline" fill="#A5ABB6" stroke="none" d="M 25 0.5 L 50.84208069471764 0.5 L 50.84208069471764 -0.5 L 25 -0.5 Z M 70.17801819471764 0.5 L 96.02009888943527 0.5 L 96.02009888943527 3.5 L 103.02009888943527 0 L 96.02009888943527 -3.5 L 96.02009888943527 -0.5 L 70.17801819471764 -0.5 Z"/><text text-anchor="middle" pointer-events="none" font-size="8px" fill="#000000" x="60.51004944471764" y="3" transform="rotate(180 60.51004944471764 0)" font-family="sans-serif">trek</text></g><g class="relationship" transform="translate(349.8622937313346 -51.52357805046391) rotate(511.5305994204622)"><path class="outline" fill="#A5ABB6" stroke="none" d="M 25 0.5 L 87.8068594305834 0.5 L 87.8068594305834 -0.5 L 25 -0.5 Z M 109.8185781805834 0.5 L 172.6254376111668 0.5 L 172.6254376111668 3.5 L 179.6254376111668 0 L 172.6254376111668 -3.5 L 172.6254376111668 -0.5 L 109.8185781805834 -0.5 Z"/><text text-anchor="middle" pointer-events="none" font-size="8px" fill="#000000" x="98.8127188055834" y="3" transform="rotate(180 98.8127188055834 0)" font-family="sans-serif">road</text></g><g class="relationship" transform="translate(349.8622937313346 -51.52357805046391) rotate(511.5305994204622)"><path class="outline" fill="#A5ABB6" stroke="none" d="M 21.40063509461097,-12.933012701892217 L 21.90063509461097,-12.06698729810778 A 158.87426322304358 158.87426322304358 0 0 1 68.17789561219168,-29.853044773546387 L 67.96917791039886,-30.831020704210502 A 159.87426322304358 159.87426322304358 0 0 0 21.40063509461097,-12.933012701892217 Z M 129.4946132846785,-31.853097978959894 L 129.318494589831,-30.868729041353063 A 158.87426322304358 158.87426322304358 0 0 1 176.16099072650653,-14.629602303218952 L 174.74811448395243,-11.983136599071951 L 182.5715567432752,-11.773968687950607 L 178.04482571657863,-18.15822324208162 L 176.63194947402454,-15.511757537934617 A 159.87426322304358 159.87426322304358 0 0 0 129.4946132846785,-31.853097978959894"/><text text-anchor="middle" pointer-events="none" font-size="8px" fill="#000000" x="98.69056332248523" y="-30.830116047763212" transform="rotate(180 98.69056332248523 -33.83011604776321)" font-family="sans-serif">PublicTransport</text></g><g class="relationship" transform="translate(169.9818380701617 46.01918892223547) rotate(219.56497407601694)"><path class="outline" fill="#A5ABB6" stroke="none" d="M 24.018736134675446,-6.953439040707552 L 24.277555179777966,-5.987513214418485 A 228.75891512918884 228.75891512918884 0 0 1 71.48975944640367,-13.467590282087457 L 71.43732450764281,-14.466214624469075 A 229.75891512918884 229.75891512918884 0 0 0 24.018736134675446,-6.953439040707552 Z M 90.80866422413352,-14.665523132462909 L 90.7767875717398,-13.666031322075185 A 228.75891512918884 228.75891512918884 0 0 1 138.13290337482206,-7.158952046630695 L 137.41623380775724,-4.245812034265498 L 145.049674998185,-5.9722463922069515 L 139.08846279757518,-11.043138729784292 L 138.37179323051035,-8.129998717419095 A 229.75891512918884 229.75891512918884 0 0 0 90.80866422413352,-14.665523132462909"/><text text-anchor="middle" pointer-events="none" font-size="8px" fill="#000000" x="81.12603696331368" y="-11.270150502249692" transform="rotate(180 81.12603696331368 -14.270150502249692)" font-family="sans-serif">trek</text></g><g class="relationship" transform="translate(39.44807806860965 -61.833387265185436) rotate(455.87899887209574)"><path class="outline" fill="#A5ABB6" stroke="none" d="M 24.018736134675446,-6.953439040707552 L 24.277555179777966,-5.987513214418485 A 196.41656086668948 196.41656086668948 0 0 1 49.781659827992826,-11.039819692219993 L 49.652687800553565,-12.031467924275205 A 197.41656086668948 197.41656086668948 0 0 0 24.018736134675446,-6.953439040707552 Z M 96.12452518127984,-12.559003241891219 L 96.01809731533271,-11.564682815997287 A 196.41656086668948 196.41656086668948 0 0 1 121.63031977765897,-7.0926346059441485 L 120.91984377196796,-4.177977877384617 L 128.54959814524636,-5.92063338075839 L 122.5776211185803,-10.978843577356857 L 121.86714511288929,-8.064186848797325 A 197.41656086668948 197.41656086668948 0 0 0 96.12452518127984,-12.559003241891219"/><text text-anchor="middle" pointer-events="none" font-size="8px" fill="#000000" x="72.87870411951296" y="-10.167558967302966" transform="rotate(180 72.87870411951296 -13.167558967302966)" font-family="sans-serif">twowheeler</text></g><g class="relationship" transform="translate(23.793156289841757 90.20115232227175) rotate(486.2681869803948)"><path class="outline" fill="#A5ABB6" stroke="none" d="M 24.018736134675446,6.953439040707552 L 24.277555179777966,5.987513214418485 A 84.78942917713117 84.78942917713117 0 0 0 24.537967466519866,6.05684712174525 L 24.28221970387872,7.0235906667994925 A 85.78942917713117 85.78942917713117 0 0 1 24.018736134675446,6.953439040707552 Z M 65.24244642457958,7.741708131484899 L 65.0207434440047,6.76659388771435 A 84.78942917713117 84.78942917713117 0 0 0 65.28342607878807,6.706430915924562 L 64.60902296074921,3.7832168569854163 L 72.21665940265255,5.6200259836571 L 66.18263023617321,10.604049661176756 L 65.50822711813436,7.680835602237611 A 85.78942917713117 85.78942917713117 0 0 1 65.24244642457958,7.741708131484899"/><text text-anchor="middle" pointer-events="none" font-size="8px" fill="#000000" x="44.72760398916487" y="12.363538123323963" transform="rotate(180 44.72760398916487 9.363538123323963)" font-family="sans-serif">twowhe…</text></g><g class="relationship" transform="translate(169.9818380701617 46.01918892223547) rotate(219.56497407601694)"><path class="outline" fill="#A5ABB6" stroke="none" d="M 24.018736134675446,6.953439040707552 L 24.277555179777966,5.987513214418485 A 228.75891512918884 228.75891512918884 0 0 0 58.00238267506049,12.358566061460408 L 57.89098882419023,13.352342399470274 A 229.75891512918884 229.75891512918884 0 0 1 24.018736134675446,6.953439040707552 Z M 104.37505064561654,13.830609217497056 L 104.28412781251704,12.834751276613332 A 228.75891512918884 228.75891512918884 0 0 0 138.13290337482206,7.158952046630695 L 137.41623380775724,4.245812034265498 L 145.049674998185,5.9722463922069515 L 139.08846279757518,11.043138729784292 L 138.37179323051035,8.129998717419095 A 229.75891512918884 229.75891512918884 0 0 1 104.37505064561654,13.830609217497056"/><text text-anchor="middle" pointer-events="none" font-size="8px" fill="#000000" x="81.12603696331364" y="17.27015050224969" transform="rotate(180 81.12603696331364 14.270150502249692)" font-family="sans-serif">twowheeler</text></g><g class="relationship" transform="translate(39.44807806860965 -61.833387265185436) rotate(455.87899887209574)"><path class="outline" fill="#A5ABB6" stroke="none" d="M 24.018736134675446,6.953439040707552 L 24.277555179777966,5.987513214418485 A 196.41656086668948 196.41656086668948 0 0 0 63.24814062882034,12.321505150099654 L 63.18772942304198,13.319678725294068 A 197.41656086668948 197.41656086668948 0 0 1 24.018736134675446,6.953439040707552 Z M 82.56372835248074,13.539629653113593 L 82.52599176941922,12.540341931634515 A 196.41656086668948 196.41656086668948 0 0 0 121.63031977765897,7.0926346059441485 L 120.91984377196796,4.177977877384617 L 128.54959814524636,5.92063338075839 L 122.5776211185803,10.978843577356857 L 121.86714511288929,8.064186848797325 A 197.41656086668948 197.41656086668948 0 0 1 82.56372835248074,13.539629653113593"/><text text-anchor="middle" pointer-events="none" font-size="8px" fill="#000000" x="72.87870411951297" y="16.167558967302966" transform="rotate(180 72.87870411951297 13.167558967302966)" font-family="sans-serif">trek</text></g><g class="relationship" transform="translate(23.793156289841757 90.20115232227175) rotate(486.2681869803948)"><path class="outline" fill="#A5ABB6" stroke="none" d="M 24.018736134675446,-6.953439040707552 L 24.277555179777966,-5.987513214418485 A 84.78942917713117 84.78942917713117 0 0 1 35.156659622585536,-8.151419118706258 L 35.02614789772786,-9.142865884637075 A 85.78942917713117 85.78942917713117 0 0 0 24.018736134675446,-6.953439040707552 Z M 54.430833277797554,-9.483070140906761 L 54.33515530112447,-8.48765780183328 A 84.78942917713117 84.78942917713117 0 0 1 65.28342607878807,-6.706430915924562 L 64.60902296074921,-3.7832168569854163 L 72.21665940265255,-5.6200259836571 L 66.18263023617321,-10.604049661176756 L 65.50822711813436,-7.680835602237611 A 85.78942917713117 85.78942917713117 0 0 0 54.430833277797554,-9.483070140906761"/><text text-anchor="middle" pointer-events="none" font-size="8px" fill="#000000" x="44.72760398916485" y="-6.363538123323963" transform="rotate(180 44.72760398916485 -9.363538123323963)" font-family="sans-serif">trek</text></g><g class="relationship" transform="translate(169.9818380701617 46.01918892223547) rotate(388.53117153789924)"><path class="outline" fill="#A5ABB6" stroke="none" d="M 25 0.5 L 76.69290143920378 0.5 L 76.69290143920378 -0.5 L 25 -0.5 Z M 96.02883893920378 0.5 L 147.72174037840756 0.5 L 147.72174037840756 3.5 L 154.72174037840756 0 L 147.72174037840756 -3.5 L 147.72174037840756 -0.5 L 96.02883893920378 -0.5 Z"/><text text-anchor="middle" pointer-events="none" font-size="8px" fill="#000000" x="86.36087018920378" y="3" font-family="sans-serif">trek</text></g><g class="relationship" transform="translate(39.44807806860965 -61.833387265185436) rotate(526.6985305861942)"><path class="outline" fill="#A5ABB6" stroke="none" d="M 24.018736134675446,-6.953439040707552 L 24.277555179777966,-5.987513214418485 A 307.4170211894018 307.4170211894018 0 0 1 78.10414185301939,-15.383096294509642 L 78.02041586706169,-16.379585109938773 A 308.4170211894018 308.4170211894018 0 0 0 24.018736134675446,-6.953439040707552 Z M 124.51493528726934,-16.76893224509115 L 124.44790915442081,-15.771181024838654 A 307.4170211894018 307.4170211894018 0 0 1 178.42429423230413,-7.2783447358877975 L 177.69647481399605,-4.367970379497593 L 185.3364709669326,-6.065161819233991 L 179.39472012338157,-11.158843877741404 L 178.6669007050735,-8.248469521351199 A 308.4170211894018 308.4170211894018 0 0 0 124.51493528726934,-16.76893224509115"/><text text-anchor="middle" pointer-events="none" font-size="8px" fill="#000000" x="101.26451487975173" y="-13.9516984838437" transform="rotate(180 101.26451487975173 -16.9516984838437)" font-family="sans-serif">twowheeler</text></g><g class="relationship" transform="translate(-164.51884684008982 -13.612126055640662) rotate(388.86721804145367)"><path class="outline" fill="#A5ABB6" stroke="none" d="M 21.40063509461097,12.933012701892217 L 21.90063509461097,12.06698729810778 A 169.3748314785759 169.3748314785759 0 0 0 92.94832643883481,34.20881639111036 L 92.86779662058498,35.20556859119455 A 170.3748314785759 170.3748314785759 0 0 1 21.40063509461097,12.933012701892217 Z M 114.92609859425447,35.55475997421178 L 114.87715916060694,34.555958226198584 A 169.3748314785759 169.3748314785759 0 0 0 186.59010183924656,14.67408474058435 L 185.17308993186407,12.029831111611468 L 192.99619562474703,11.80843256152071 L 188.47945104908985,18.199756245881527 L 187.06243914170736,15.555502616908646 A 170.3748314785759 170.3748314785759 0 0 1 114.92609859425447,35.55475997421178"/><text text-anchor="middle" pointer-events="none" font-size="8px" fill="#000000" x="103.89920397110774" y="38.2376305490173" font-family="sans-serif">road</text></g><g class="relationship" transform="translate(39.44807806860965 -61.833387265185436) rotate(526.6985305861942)"><path class="outline" fill="#A5ABB6" stroke="none" d="M 24.018736134675446,6.953439040707552 L 24.277555179777966,5.987513214418485 A 307.4170211894018 307.4170211894018 0 0 0 91.61962496504485,16.21939053142995 L 91.57986363354816,17.21859973701089 A 308.4170211894018 308.4170211894018 0 0 1 24.018736134675446,6.953439040707552 Z M 110.94333818442213,17.380750318132925 L 110.92031609859573,16.38101536147485 A 307.4170211894018 307.4170211894018 0 0 0 178.42429423230413,7.2783447358877975 L 177.69647481399605,4.367970379497593 L 185.3364709669326,6.065161819233991 L 179.39472012338157,11.158843877741404 L 178.6669007050735,8.248469521351199 A 308.4170211894018 308.4170211894018 0 0 1 110.94333818442213,17.380750318132925"/><text text-anchor="middle" pointer-events="none" font-size="8px" fill="#000000" x="101.26451487975181" y="19.9516984838437" transform="rotate(180 101.26451487975181 16.9516984838437)" font-family="sans-serif">trek</text></g><g class="relationship" transform="translate(-164.51884684008982 -13.612126055640662) rotate(388.86721804145367)"><path class="outline" fill="#A5ABB6" stroke="none" d="M 25 0.5 L 80.78339939142722 0.5 L 80.78339939142722 -0.5 L 25 -0.5 Z M 127.24824314142722 0.5 L 183.03164253285445 0.5 L 183.03164253285445 3.5 L 190.03164253285445 0 L 183.03164253285445 -3.5 L 183.03164253285445 -0.5 L 127.24824314142722 -0.5 Z"/><text text-anchor="middle" pointer-events="none" font-size="8px" fill="#000000" x="104.01582126642722" y="3" font-family="sans-serif">twowheeler</text></g><g class="relationship" transform="translate(-164.51884684008982 -13.612126055640662) rotate(388.86721804145367)"><path class="outline" fill="#A5ABB6" stroke="none" d="M 21.40063509461097,-12.933012701892217 L 21.90063509461097,-12.06698729810778 A 169.3748314785759 169.3748314785759 0 0 1 94.27835605065665,-34.3110024059383 L 94.20567881357377,-35.308357918887424 A 170.3748314785759 170.3748314785759 0 0 0 21.40063509461097,-12.933012701892217 Z M 113.58563320898604,-35.61515003217988 L 113.54456151832399,-34.61599383006424 A 169.3748314785759 169.3748314785759 0 0 1 186.59010183924656,-14.67408474058435 L 185.17308993186407,-12.029831111611468 L 192.99619562474703,-11.80843256152071 L 188.47945104908985,-18.199756245881527 L 187.06243914170736,-15.555502616908646 A 170.3748314785759 170.3748314785759 0 0 0 113.58563320898604,-35.61515003217988"/><text text-anchor="middle" pointer-events="none" font-size="8px" fill="#000000" x="103.8992039711077" y="-32.2376305490173" font-family="sans-serif">trek</text></g><g class="relationship" transform="translate(-164.51884684008982 -13.612126055640662) rotate(448.16897817672907)"><path class="outline" fill="#A5ABB6" stroke="none" d="M 25 0.5 L 39.217815855009576 0.5 L 39.217815855009576 -0.5 L 25 -0.5 Z M 58.553753355009576 0.5 L 72.77156921001915 0.5 L 72.77156921001915 3.5 L 79.77156921001915 0 L 72.77156921001915 -3.5 L 72.77156921001915 -0.5 L 58.553753355009576 -0.5 Z"/><text text-anchor="middle" pointer-events="none" font-size="8px" fill="#000000" x="48.885784605009576" y="3" font-family="sans-serif">trek</text></g><g class="relationship" transform="translate(-161.17119401735226 91.1059475291434) rotate(391.049755905674)"><path class="outline" fill="#A5ABB6" stroke="none" d="M 25 0.5 L 61.43802483373614 0.5 L 61.43802483373614 -0.5 L 25 -0.5 Z M 80.77396233373614 0.5 L 117.21198716747227 0.5 L 117.21198716747227 3.5 L 124.21198716747227 0 L 117.21198716747227 -3.5 L 117.21198716747227 -0.5 L 80.77396233373614 -0.5 Z"/><text text-anchor="middle" pointer-events="none" font-size="8px" fill="#000000" x="71.10599358373614" y="3" font-family="sans-serif">trek</text></g></g><g class="layer nodes"><g class="node" transform="translate(349.8622937313346,-51.52357805046391)"><circle class="outline" cx="0" cy="0" r="25" fill="#F16667" stroke="#eb2728" stroke-width="2px"/><text text-anchor="middle" pointer-events="none" font-family="sans-serif" dy="1.5625" font-size="25" fill="#FFFFFF"/><text text-anchor="middle" pointer-events="none" x="0" y="5" font-size="10px" fill="#FFFFFF" font-family="sans-serif"> Darjeeling</text></g><g class="node" transform="translate(-33.33834271252711,168.06684176605032)"><circle class="outline" cx="0" cy="0" r="25" fill="#D9C8AE" stroke="#c0a378" stroke-width="2px"/><text text-anchor="middle" pointer-events="none" font-family="sans-serif" dy="1.5625" font-size="25" fill="#2A2C34"/><text text-anchor="middle" pointer-events="none" x="0" y="5" font-size="10px" fill="#2A2C34" font-family="sans-serif"> Sandak…</text></g><g class="node" transform="translate(327.87770056113754,131.86090706018155)"><circle class="outline" cx="0" cy="0" r="25" fill="#8DCC93" stroke="#5db665" stroke-width="2px"/><text text-anchor="middle" pointer-events="none" font-family="sans-serif" dy="1.5625" font-size="25" fill="#2A2C34"/><text text-anchor="middle" pointer-events="none" x="0" y="5" font-size="10px" fill="#2A2C34" font-family="sans-serif"> Tumbling</text></g><g class="node" transform="translate(213.958025344707,191.1815800759772)"><circle class="outline" cx="0" cy="0" r="25" fill="#8DCC93" stroke="#5db665" stroke-width="2px"/><text text-anchor="middle" pointer-events="none" font-family="sans-serif" dy="1.5625" font-size="25" fill="#2A2C34"/><text text-anchor="middle" pointer-events="none" x="0" y="5" font-size="10px" fill="#2A2C34" font-family="sans-serif"> Gairibus</text></g><g class="node" transform="translate(103.00565160115531,155.1216002875654)"><circle class="outline" cx="0" cy="0" r="25" fill="#8DCC93" stroke="#5db665" stroke-width="2px"/><text text-anchor="middle" pointer-events="none" font-family="sans-serif" dy="1.5625" font-size="25" fill="#2A2C34"/><text text-anchor="middle" pointer-events="none" x="0" y="5" font-size="10px" fill="#2A2C34" font-family="sans-serif"> BhikeBh…</text></g><g class="node selected" transform="translate(169.9818380701617,46.01918892223547)"><circle class="outline" cx="0" cy="0" r="25" fill="#F16667" stroke="#eb2728" stroke-width="2px"/><text text-anchor="middle" pointer-events="none" font-family="sans-serif" dy="1.5625" font-size="25" fill="#FFFFFF"/><text text-anchor="middle" pointer-events="none" x="0" y="5" font-size="10px" fill="#FFFFFF" font-family="sans-serif"> Rimbik</text></g><g class="node" transform="translate(39.44807806860965,-61.833387265185436)"><circle class="outline" cx="0" cy="0" r="25" fill="#8DCC93" stroke="#5db665" stroke-width="2px"/><text text-anchor="middle" pointer-events="none" font-family="sans-serif" dy="1.5625" font-size="25" fill="#2A2C34"/><text text-anchor="middle" pointer-events="none" x="0" y="5" font-size="10px" fill="#2A2C34" font-family="sans-serif"> Sirikhola</text></g><g class="node" transform="translate(23.793156289841757,90.20115232227175)"><circle class="outline" cx="0" cy="0" r="25" fill="#8DCC93" stroke="#5db665" stroke-width="2px"/><text text-anchor="middle" pointer-events="none" font-family="sans-serif" dy="1.5625" font-size="25" fill="#2A2C34"/><text text-anchor="middle" pointer-events="none" x="0" y="5" font-size="10px" fill="#2A2C34" font-family="sans-serif"> Gurdum</text></g><g class="node" transform="translate(-164.51884684008982,-13.612126055640662)"><circle class="outline" cx="0" cy="0" r="25" fill="#8DCC93" stroke="#5db665" stroke-width="2px"/><text text-anchor="middle" pointer-events="none" font-family="sans-serif" dy="1.5625" font-size="25" fill="#2A2C34"/><text text-anchor="middle" pointer-events="none" x="0" y="5" font-size="10px" fill="#2A2C34" font-family="sans-serif"> Rammam</text></g><g class="node" transform="translate(-161.17119401735226,91.1059475291434)"><circle class="outline" cx="0" cy="0" r="25" fill="#D9C8AE" stroke="#c0a378" stroke-width="2px"/><text text-anchor="middle" pointer-events="none" font-family="sans-serif" dy="1.5625" font-size="25" fill="#2A2C34"/><text text-anchor="middle" pointer-events="none" x="0" y="5" font-size="10px" fill="#2A2C34" font-family="sans-serif"> Sabargr…</text></g></g></svg>