<svg xmlns="http://www.w3.org/2000/svg" width="679.332275390625" height="409.724853515625" viewBox="-389.0975036621094 -123.93772888183594 679.332275390625 409.724853515625"><title>Neo4j Graph Visualization</title><desc>Created using Neo4j (http://www.neo4j.com/)</desc><g class="layer relationships"><g class="relationship" transform="translate(261.23472942387457 -14.485634895433066) rotate(510.0359209560206)"><path class="outline" fill="#A5ABB6" stroke="none" d="M 21.40063509461097,12.933012701892217 L 21.90063509461097,12.06698729810778 A 130.7671866641936 130.7671866641936 0 0 0 75.16823749669612,29.023966188947483 L 75.07558435305143,30.019664634749617 A 131.7671866641936 131.7671866641936 0 0 1 21.40063509461097,12.933012701892217 Z M 94.46407973045419,30.39071175824877 L 94.40959081340654,29.39219738282948 A 130.7671866641936 130.7671866641936 0 0 0 148.28698006429337,14.485704627005317 L 146.88748329770226,11.832139327205633 L 154.71188189159116,11.662473054925979 L 150.15297575308153,18.0237916934049 L 148.75347898649042,15.370226393605213 A 131.7671866641936 131.7671866641936 0 0 1 94.46407973045419,30.39071175824877"/><text text-anchor="middle" pointer-events="none" font-size="8px" fill="#000000" x="84.77256394022658" y="33.062437053650214" transform="rotate(180 84.77256394022658 30.062437053650214)" font-family="sans-serif">trek</text></g><g class="relationship" transform="translate(108.0444523182085 73.83080454370655) rotate(379.4934116909799)"><path class="outline" fill="#A5ABB6" stroke="none" d="M 25 0.5 L 58.698727280933255 0.5 L 58.698727280933255 -0.5 L 25 -0.5 Z M 78.03466478093326 0.5 L 111.73339206186651 0.5 L 111.73339206186651 3.5 L 118.73339206186651 0 L 111.73339206186651 -3.5 L 111.73339206186651 -0.5 L 78.03466478093326 -0.5 Z"/><text text-anchor="middle" pointer-events="none" font-size="8px" fill="#000000" x="68.36669603093326" y="3" font-family="sans-serif">trek</text></g><g class="relationship" transform="translate(243.5390274516152 121.79441682455793) rotate(466.23217478228776)"><path class="outline" fill="#A5ABB6" stroke="none" d="M 21.40063509461097,-12.933012701892217 L 21.90063509461097,-12.06698729810778 A 73.0632270937722 73.0632270937722 0 0 1 46.85395647567807,-20.932367569056836 L 46.695486987997775,-21.919731443965347 A 74.0632270937722 74.0632270937722 0 0 0 21.40063509461097,-12.933012701892217 Z M 66.0994005110629,-22.457676319366556 L 65.99587880170154,-21.463049125041508 A 73.0632270937722 73.0632270937722 0 0 1 91.40205336281934,-13.99381158260359 L 90.04830239809638,-11.316619335955684 L 97.87446043245161,-11.281258039357999 L 93.20705464911663,-17.563401244800794 L 91.85330368439367,-14.88620899815289 A 74.0632270937722 74.0632270937722 0 0 0 66.0994005110629,-22.457676319366556"/><text text-anchor="middle" pointer-events="none" font-size="8px" fill="#000000" x="56.393599995685065" y="-19.327349811069084" transform="rotate(180 56.393599995685065 -22.327349811069084)" font-family="sans-serif">trek</text></g><g class="relationship" transform="translate(209.94384475730723 237.1878858712901) rotate(182.45651456316477)"><path class="outline" fill="#A5ABB6" stroke="none" d="M 21.40063509461097,12.933012701892217 L 21.90063509461097,12.06698729810778 A 215.2211614174562 215.2211614174562 0 0 0 117.04748005093178,40.53995687523795 L 116.98956875786784,41.53827860801533 A 216.2211614174562 216.2211614174562 0 0 1 21.40063509461097,12.933012701892217 Z M 136.3621667960632,41.792592312040966 L 136.33048187240536,40.7930944052834 A 215.2211614174562 215.2211614174562 0 0 0 232.19196773370896,14.827585934516856 L 230.76068535532977,12.191029325350044 L 238.5824802181614,11.92735315315987 L 234.10034423821457,18.342994746739272 L 232.66906185983538,15.70643813757246 A 216.2211614174562 216.2211614174562 0 0 1 136.3621667960632,41.792592312040966"/><text text-anchor="middle" pointer-events="none" font-size="8px" fill="#000000" x="126.6795810900716" y="44.38257015998701" transform="rotate(180 126.6795810900716 41.38257015998701)" font-family="sans-serif">trek</text></g><g class="relationship" transform="translate(-50.37050187085305 226.020255376275) rotate(180.96563977123975)"><path class="outline" fill="#A5ABB6" stroke="none" d="M 25 0.5 L 124.715117640838 0.5 L 124.715117640838 -0.5 L 25 -0.5 Z M 144.051055140838 0.5 L 243.766172781676 0.5 L 243.766172781676 3.5 L 250.766172781676 0 L 243.766172781676 -3.5 L 243.766172781676 -0.5 L 144.051055140838 -0.5 Z"/><text text-anchor="middle" pointer-events="none" font-size="8px" fill="#000000" x="134.383086390838" y="3" transform="rotate(180 134.383086390838 0)" font-family="sans-serif">trek</text></g><g class="relationship" transform="translate(261.23472942387457 -14.485634895433066) rotate(510.0359209560206)"><path class="outline" fill="#A5ABB6" stroke="none" d="M 25 0.5 L 73.90660365329423 0.5 L 73.90660365329423 -0.5 L 25 -0.5 Z M 95.91832240329423 0.5 L 144.82492605658845 0.5 L 144.82492605658845 3.5 L 151.82492605658845 0 L 144.82492605658845 -3.5 L 144.82492605658845 -0.5 L 95.91832240329423 -0.5 Z"/><text text-anchor="middle" pointer-events="none" font-size="8px" fill="#000000" x="84.91246302829423" y="3" transform="rotate(180 84.91246302829423 0)" font-family="sans-serif">road</text></g><g class="relationship" transform="translate(261.23472942387457 -14.485634895433066) rotate(510.0359209560206)"><path class="outline" fill="#A5ABB6" stroke="none" d="M 21.40063509461097,-12.933012701892217 L 21.90063509461097,-12.06698729810778 A 130.7671866641936 130.7671866641936 0 0 1 54.39331734057163,-25.382487519296788 L 54.141794677087255,-26.350338928219514 A 131.7671866641936 131.7671866641936 0 0 0 21.40063509461097,-12.933012701892217 Z M 115.52293323703539,-27.52501981275664 L 115.30862567287457,-26.548253582820593 A 130.7671866641936 130.7671866641936 0 0 1 148.28698006429337,-14.485704627005317 L 146.88748329770226,-11.832139327205633 L 154.71188189159116,-11.662473054925979 L 150.15297575308153,-18.0237916934049 L 148.75347898649042,-15.370226393605213 A 131.7671866641936 131.7671866641936 0 0 0 115.52293323703539,-27.52501981275664"/><text text-anchor="middle" pointer-events="none" font-size="8px" fill="#000000" x="84.77256394022658" y="-27.062437053650214" transform="rotate(180 84.77256394022658 -30.062437053650214)" font-family="sans-serif">PublicTransport</text></g><g class="relationship" transform="translate(261.23472942387457 -14.485634895433066) rotate(457.3983517977206)"><path class="outline" fill="#A5ABB6" stroke="none" d="M 24.018736134675446,-6.953439040707552 L 24.277555179777966,-5.987513214418485 A 166.07277708327808 166.07277708327808 0 0 1 55.54450196681856,-11.232534361734793 L 55.47395548110945,-12.230042854607944 A 167.07277708327808 167.07277708327808 0 0 0 24.018736134675446,-6.953439040707552 Z M 74.85551659070754,-12.473577703842153 L 74.81005637892854,-11.474611553692398 A 166.07277708327808 166.07277708327808 0 0 1 106.19892104202827,-7.01687856695667 L 105.49552035895594,-4.100506252067268 L 113.12102322394894,-5.861672358936122 L 107.13678861945804,-10.905374986809207 L 106.43338793638571,-7.989002671919804 A 167.07277708327808 167.07277708327808 0 0 0 74.85551659070754,-12.473577703842153"/><text text-anchor="middle" pointer-events="none" font-size="8px" fill="#000000" x="65.16748346877274" y="-9.133157638255739" transform="rotate(180 65.16748346877274 -12.133157638255739)" font-family="sans-serif">trek</text></g><g class="relationship" transform="translate(261.23472942387457 -14.485634895433066) rotate(457.3983517977206)"><path class="outline" fill="#A5ABB6" stroke="none" d="M 24.018736134675446,6.953439040707552 L 24.277555179777966,5.987513214418485 A 166.07277708327808 166.07277708327808 0 0 0 54.21434283818522,11.133091823790096 L 54.13578685716933,12.130001527748618 A 167.07277708327808 167.07277708327808 0 0 1 24.018736134675446,6.953439040707552 Z M 76.1957764228926,12.407191595288396 L 76.14229419905645,11.40862279358592 A 166.07277708327808 166.07277708327808 0 0 0 106.19892104202827,7.01687856695667 L 105.49552035895594,4.100506252067268 L 113.12102322394894,5.861672358936122 L 107.13678861945804,10.905374986809207 L 106.43338793638571,7.989002671919804 A 167.07277708327808 167.07277708327808 0 0 1 76.1957764228926,12.407191595288396"/><text text-anchor="middle" pointer-events="none" font-size="8px" fill="#000000" x="65.16748346877276" y="15.133157638255739" transform="rotate(180 65.16748346877276 12.133157638255739)" font-family="sans-serif">road</text></g><g class="relationship" transform="translate(243.5390274516152 121.79441682455793) rotate(466.23217478228776)"><path class="outline" fill="#A5ABB6" stroke="none" d="M 25 0.5 L 33.35977603559207 0.5 L 33.35977603559207 -0.5 L 25 -0.5 Z M 79.82461978559206 0.5 L 88.18439582118414 0.5 L 88.18439582118414 3.5 L 95.18439582118414 0 L 88.18439582118414 -3.5 L 88.18439582118414 -0.5 L 79.82461978559206 -0.5 Z"/><text text-anchor="middle" pointer-events="none" font-size="8px" fill="#000000" x="56.59219791059207" y="3" transform="rotate(180 56.59219791059207 0)" font-family="sans-serif">twowheeler</text></g><g class="relationship" transform="translate(243.5390274516152 121.79441682455793) rotate(466.23217478228776)"><path class="outline" fill="#A5ABB6" stroke="none" d="M 21.40063509461097,12.933012701892217 L 21.90063509461097,12.06698729810778 A 73.0632270937722 73.0632270937722 0 0 0 45.543937293099745,20.709875006859292 L 45.367537866725435,21.694193675977587 A 74.0632270937722 74.0632270937722 0 0 1 21.40063509461097,12.933012701892217 Z M 67.43780569264774,22.306059290693625 L 67.31621286710494,21.313479226025535 A 73.0632270937722 73.0632270937722 0 0 0 91.40205336281934,13.99381158260359 L 90.04830239809638,11.316619335955684 L 97.87446043245161,11.281258039357999 L 93.20705464911663,17.563401244800794 L 91.85330368439367,14.88620899815289 A 74.0632270937722 74.0632270937722 0 0 1 67.43780569264774,22.306059290693625"/><text text-anchor="middle" pointer-events="none" font-size="8px" fill="#000000" x="56.393599995685044" y="25.327349811069084" transform="rotate(180 56.393599995685044 22.327349811069084)" font-family="sans-serif">road</text></g><g class="relationship" transform="translate(209.94384475730723 237.1878858712901) rotate(182.45651456316477)"><path class="outline" fill="#A5ABB6" stroke="none" d="M 25 0.5 L 115.77103327227567 0.5 L 115.77103327227567 -0.5 L 25 -0.5 Z M 137.78275202227567 0.5 L 228.55378529455135 0.5 L 228.55378529455135 3.5 L 235.55378529455135 0 L 228.55378529455135 -3.5 L 228.55378529455135 -0.5 L 137.78275202227567 -0.5 Z"/><text text-anchor="middle" pointer-events="none" font-size="8px" fill="#000000" x="126.77689264727567" y="3" transform="rotate(180 126.77689264727567 0)" font-family="sans-serif">road</text></g><g class="relationship" transform="translate(108.0444523182085 73.83080454370655) rotate(496.1482364977399)"><path class="outline" fill="#A5ABB6" stroke="none" d="M 25 0.5 L 96.6693275744285 0.5 L 96.6693275744285 -0.5 L 25 -0.5 Z M 116.0052650744285 0.5 L 187.674592648857 0.5 L 187.674592648857 3.5 L 194.674592648857 0 L 187.674592648857 -3.5 L 187.674592648857 -0.5 L 116.0052650744285 -0.5 Z"/><text text-anchor="middle" pointer-events="none" font-size="8px" fill="#000000" x="106.3372963244285" y="3" transform="rotate(180 106.3372963244285 0)" font-family="sans-serif">trek</text></g><g class="relationship" transform="translate(209.94384475730723 237.1878858712901) rotate(182.45651456316477)"><path class="outline" fill="#A5ABB6" stroke="none" d="M 21.40063509461097,-12.933012701892217 L 21.90063509461097,-12.06698729810778 A 215.2211614174562 215.2211614174562 0 0 1 103.57071158047455,-39.332137907165475 L 103.45018205609126,-40.32484765011753 A 216.2211614174562 216.2211614174562 0 0 0 21.40063509461097,-12.933012701892217 Z M 149.92874091656645,-40.93499474749066 L 149.83431202265348,-39.93946313875372 A 215.2211614174562 215.2211614174562 0 0 1 232.19196773370896,-14.827585934516856 L 230.76068535532977,-12.191029325350044 L 238.5824802181614,-11.92735315315987 L 234.10034423821457,-18.342994746739272 L 232.66906185983538,-15.70643813757246 A 216.2211614174562 216.2211614174562 0 0 0 149.92874091656645,-40.93499474749066"/><text text-anchor="middle" pointer-events="none" font-size="8px" fill="#000000" x="126.67958109007162" y="-38.38257015998701" transform="rotate(180 126.67958109007162 -41.38257015998701)" font-family="sans-serif">twowheeler</text></g><g class="relationship" transform="translate(108.0444523182085 73.83080454370655) rotate(258.4312092576682)"><path class="outline" fill="#A5ABB6" stroke="none" d="M 24.018736134675446,-6.953439040707552 L 24.277555179777966,-5.987513214418485 A 226.002130541352 226.002130541352 0 0 1 70.78626073909761,-13.37034287307452 L 70.73323048655168,-14.368935779275489 A 227.002130541352 227.002130541352 0 0 0 24.018736134675446,-6.953439040707552 Z M 90.1049260686768,-14.569853660009358 L 90.07261925616557,-13.57037566131936 A 226.002130541352 226.002130541352 0 0 1 136.72444863266335,-7.153781362288152 L 136.0082619616908,-4.240522593774571 L 143.6414168710238,-5.968222258104489 L 137.67936419396008,-11.038126386972927 L 136.96317752298754,-8.124867618459346 A 227.002130541352 227.002130541352 0 0 0 90.1049260686768,-14.569853660009358"/><text text-anchor="middle" pointer-events="none" font-size="8px" fill="#000000" x="80.42211955113814" y="-11.176167334046994" transform="rotate(180 80.42211955113814 -14.176167334046994)" font-family="sans-serif">trek</text></g><g class="relationship" transform="translate(74.36933748671517 -90.67644116875209) rotate(533.0584416417703)"><path class="outline" fill="#A5ABB6" stroke="none" d="M 24.018736134675446,-6.953439040707552 L 24.277555179777966,-5.987513214418485 A 637.061089915397 637.061089915397 0 0 1 162.96523827451784,-27.156030614048973 L 162.92411841916362,-28.15518483512585 A 638.061089915397 638.061089915397 0 0 0 24.018736134675446,-6.953439040707552 Z M 209.41459961024955,-28.373316483990607 L 209.38285734953706,-27.373820396512087 A 637.061089915397 637.061089915397 0 0 1 348.2630737486194,-7.507641497953916 L 347.5138427339324,-4.6027055457114 L 355.1661294729664,-6.243591789058064 L 349.2620484348687,-11.38088943427727 L 348.5128174201817,-8.475953482034754 A 638.061089915397 638.061089915397 0 0 0 209.41459961024955,-28.373316483990607"/><text text-anchor="middle" pointer-events="none" font-size="8px" fill="#000000" x="186.169717597508" y="-25.18782577086722" transform="rotate(180 186.169717597508 -28.18782577086722)" font-family="sans-serif">twowheeler</text></g><g class="relationship" transform="translate(-302.22375865224774 -44.826490217161734) rotate(393.7494717167075)"><path class="outline" fill="#A5ABB6" stroke="none" d="M 21.40063509461097,12.933012701892217 L 21.90063509461097,12.06698729810778 A 241.64246177105963 241.64246177105963 0 0 0 128.85895615960595,44.04295662962696 L 128.80158664880503,45.04130964295965 A 242.64246177105963 242.64246177105963 0 0 1 21.40063509461097,12.933012701892217 Z M 150.84958949791027,45.30477434884327 L 150.8160927906215,44.30533552099996 A 241.64246177105963 241.64246177105963 0 0 0 258.507963119229,14.894349055748862 L 257.07047448883105,12.261171044774919 L 264.89162658323454,11.979071919982685 L 260.42461462642626,18.405253070380784 L 258.98712599602834,15.772075059406841 A 242.64246177105963 242.64246177105963 0 0 1 150.84958949791027,45.30477434884327"/><text text-anchor="middle" pointer-events="none" font-size="8px" fill="#000000" x="139.82856817934362" y="47.923652290935024" font-family="sans-serif">road</text></g><g class="relationship" transform="translate(-63.72788879044319 114.52817450551592) rotate(517.8423970185064)"><path class="outline" fill="#A5ABB6" stroke="none" d="M 24.018736134675446,6.953439040707552 L 24.277555179777966,5.987513214418485 A 450.75334703565574 450.75334703565574 0 0 0 114.93340435589043,20.59563548342294 L 114.87570605625172,21.593969548863356 A 451.75334703565574 451.75334703565574 0 0 1 24.018736134675446,6.953439040707552 Z M 161.37058019126985,21.884387376494715 L 161.32535756195452,20.885410442928276 A 450.75334703565574 450.75334703565574 0 0 0 252.156617417912,7.410898984335266 L 251.41641984347578,4.503648126428654 L 259.0635690154335,6.168313120301849 L 253.14354751716027,11.287233461544082 L 252.40334994272405,8.37998260363747 A 451.75334703565574 451.75334703565574 0 0 1 161.37058019126985,21.884387376494715"/><text text-anchor="middle" pointer-events="none" font-size="8px" fill="#000000" x="138.1225273704928" y="24.837758398099027" transform="rotate(180 138.1225273704928 21.837758398099027)" font-family="sans-serif">twowheeler</text></g><g class="relationship" transform="translate(108.0444523182085 73.83080454370655) rotate(258.4312092576682)"><path class="outline" fill="#A5ABB6" stroke="none" d="M 24.018736134675446,6.953439040707552 L 24.277555179777966,5.987513214418485 A 226.002130541352 226.002130541352 0 0 0 57.30035753461043,12.248456322696967 L 57.18765570652587,13.242085175914497 A 227.002130541352 227.002130541352 0 0 1 24.018736134675446,6.953439040707552 Z M 103.6709591479223,13.724197171602242 L 103.57889063605217,12.728444496927466 A 226.002130541352 226.002130541352 0 0 0 136.72444863266335,7.153781362288152 L 136.0082619616908,4.240522593774571 L 143.6414168710238,5.968222258104489 L 137.67936419396008,11.038126386972927 L 136.96317752298754,8.124867618459346 A 227.002130541352 227.002130541352 0 0 1 103.6709591479223,13.724197171602242"/><text text-anchor="middle" pointer-events="none" font-size="8px" fill="#000000" x="80.42211955113818" y="17.176167334046994" transform="rotate(180 80.42211955113818 14.176167334046994)" font-family="sans-serif">twowheeler</text></g><g class="relationship" transform="translate(74.36933748671517 -90.67644116875209) rotate(533.0584416417703)"><path class="outline" fill="#A5ABB6" stroke="none" d="M 24.018736134675446,6.953439040707552 L 24.277555179777966,5.987513214418485 A 637.061089915397 637.061089915397 0 0 0 176.51249700309208,27.569264541705593 L 176.49264239049558,28.569067419456246 A 638.061089915397 638.061089915397 0 0 1 24.018736134675446,6.953439040707552 Z M 195.84278927633378,28.65985760570186 L 195.83231740892438,27.659912437208618 A 637.061089915397 637.061089915397 0 0 0 348.2630737486194,7.507641497953916 L 347.5138427339324,4.6027055457114 L 355.1661294729664,6.243591789058064 L 349.2620484348687,11.38088943427727 L 348.5128174201817,8.475953482034754 A 638.061089915397 638.061089915397 0 0 1 195.84278927633378,28.65985760570186"/><text text-anchor="middle" pointer-events="none" font-size="8px" fill="#000000" x="186.16971759750814" y="31.18782577086722" transform="rotate(180 186.16971759750814 28.18782577086722)" font-family="sans-serif">trek</text></g><g class="relationship" transform="translate(74.36933748671517 -90.67644116875209) rotate(483.9395005596882)"><path class="outline" fill="#A5ABB6" stroke="none" d="M 24.018736134675446,-6.953439040707552 L 24.277555179777966,-5.987513214418485 A 380.9171469511218 380.9171469511218 0 0 1 96.96837457980293,-18.085561046581233 L 96.90038658544685,-19.0832471859174 A 381.9171469511218 381.9171469511218 0 0 0 24.018736134675446,-6.953439040707552 Z M 143.3961953009474,-19.414753300420557 L 143.34244011334192,-18.416199155766662 A 380.9171469511218 380.9171469511218 0 0 1 216.19837424712173,-7.355871498292714 L 215.4633151332647,-4.447317201200129 L 223.10751079264725,-6.125492615475114 L 217.17845306559775,-11.23394389441616 L 216.44339395174072,-8.325389597323577 A 381.9171469511218 381.9171469511218 0 0 0 143.3961953009474,-19.414753300420557"/><text text-anchor="middle" pointer-events="none" font-size="8px" fill="#000000" x="120.1468061191673" y="-16.45725611250964" transform="rotate(180 120.1468061191673 -19.45725611250964)" font-family="sans-serif">twowheeler</text></g><g class="relationship" transform="translate(-302.22375865224774 -44.826490217161734) rotate(393.7494717167075)"><path class="outline" fill="#A5ABB6" stroke="none" d="M 25 0.5 L 116.68496646234198 0.5 L 116.68496646234198 -0.5 L 25 -0.5 Z M 163.14981021234198 0.5 L 254.83477667468395 0.5 L 254.83477667468395 3.5 L 261.83477667468395 0 L 254.83477667468395 -3.5 L 254.83477667468395 -0.5 L 163.14981021234198 -0.5 Z"/><text text-anchor="middle" pointer-events="none" font-size="8px" fill="#000000" x="139.91738833734198" y="3" font-family="sans-serif">twowheeler</text></g><g class="relationship" transform="translate(-302.22375865224774 -44.826490217161734) rotate(393.7494717167075)"><path class="outline" fill="#A5ABB6" stroke="none" d="M 21.40063509461097,-12.933012701892217 L 21.90063509461097,-12.06698729810778 A 241.64246177105963 241.64246177105963 0 0 1 130.1920900574835,-44.11586952643279 L 130.14023751538133,-45.11452427852558 A 242.64246177105963 242.64246177105963 0 0 0 21.40063509461097,-12.933012701892217 Z M 149.50957135554637,-45.34597997445803 L 149.48159725189666,-44.34637132627367 A 241.64246177105963 241.64246177105963 0 0 1 258.507963119229,-14.894349055748862 L 257.07047448883105,-12.261171044774919 L 264.89162658323454,-11.979071919982685 L 260.42461462642626,-18.405253070380784 L 258.98712599602834,-15.772075059406841 A 242.64246177105963 242.64246177105963 0 0 0 149.50957135554637,-45.34597997445803"/><text text-anchor="middle" pointer-events="none" font-size="8px" fill="#000000" x="139.8285681793436" y="-41.923652290935024" font-family="sans-serif">trek</text></g><g class="relationship" transform="translate(74.36933748671517 -90.67644116875209) rotate(483.9395005596882)"><path class="outline" fill="#A5ABB6" stroke="none" d="M 24.018736134675446,6.953439040707552 L 24.277555179777966,5.987513214418485 A 380.9171469511218 380.9171469511218 0 0 0 110.49722757964872,18.766078454017475 L 110.46475610931404,19.765551116782376 A 381.9171469511218 381.9171469511218 0 0 1 24.018736134675446,6.953439040707552 Z M 129.8234758777754,19.90357504086262 L 129.8052590773084,18.90374098054025 A 380.9171469511218 380.9171469511218 0 0 0 216.19837424712173,7.355871498292714 L 215.4633151332647,4.447317201200129 L 223.10751079264725,6.125492615475114 L 217.17845306559775,11.23394389441616 L 216.44339395174072,8.325389597323577 A 381.9171469511218 381.9171469511218 0 0 1 129.8234758777754,19.90357504086262"/><text text-anchor="middle" pointer-events="none" font-size="8px" fill="#000000" x="120.1468061191675" y="22.45725611250964" transform="rotate(180 120.1468061191675 19.45725611250964)" font-family="sans-serif">trek</text></g><g class="relationship" transform="translate(-302.22375865224774 -44.826490217161734) rotate(437.96422367701257)"><path class="outline" fill="#A5ABB6" stroke="none" d="M 25 0.5 L 48.584418368300064 0.5 L 48.584418368300064 -0.5 L 25 -0.5 Z M 67.92035586830006 0.5 L 91.50477423660013 0.5 L 91.50477423660013 3.5 L 98.50477423660013 0 L 91.50477423660013 -3.5 L 91.50477423660013 -0.5 L 67.92035586830006 -0.5 Z"/><text text-anchor="middle" pointer-events="none" font-size="8px" fill="#000000" x="58.252387118300064" y="3" font-family="sans-serif">trek</text></g><g class="relationship" transform="translate(-276.4702442568913 75.96335105900576) rotate(468.8444248295522)"><path class="outline" fill="#A5ABB6" stroke="none" d="M 25 0.5 L 63.654522313147254 0.5 L 63.654522313147254 -0.5 L 25 -0.5 Z M 82.99045981314725 0.5 L 121.64498212629451 0.5 L 121.64498212629451 3.5 L 128.6449821262945 0 L 121.64498212629451 -3.5 L 121.64498212629451 -0.5 L 82.99045981314725 -0.5 Z"/><text text-anchor="middle" pointer-events="none" font-size="8px" fill="#000000" x="73.32249106314725" y="3" transform="rotate(180 73.32249106314725 0)" font-family="sans-serif">trek</text></g><g class="relationship" transform="translate(-63.72788879044319 114.52817450551592) rotate(517.8423970185064)"><path class="outline" fill="#A5ABB6" stroke="none" d="M 24.018736134675446,-6.953439040707552 L 24.277555179777966,-5.987513214418485 A 450.75334703565574 450.75334703565574 0 0 1 128.46996733800842,-21.174006519211048 L 128.44230001444816,-22.173623705541388 A 451.75334703565574 451.75334703565574 0 0 0 24.018736134675446,-6.953439040707552 Z M 147.7978037771596,-22.29452269623772 L 147.7826258093906,-21.29463788822511 A 450.75334703565574 450.75334703565574 0 0 1 252.156617417912,-7.410898984335266 L 251.41641984347578,-4.503648126428654 L 259.0635690154335,-6.168313120301849 L 253.14354751716027,-11.287233461544082 L 252.40334994272405,-8.37998260363747 A 451.75334703565574 451.75334703565574 0 0 0 147.7978037771596,-22.29452269623772"/><text text-anchor="middle" pointer-events="none" font-size="8px" fill="#000000" x="138.12252737049278" y="-18.837758398099027" transform="rotate(180 138.12252737049278 -21.837758398099027)" font-family="sans-serif">trek</text></g></g><g class="layer nodes"><g class="node" transform="translate(261.23472942387457,-14.485634895433066)"><circle class="outline" cx="0" cy="0" r="25" fill="#F16667" stroke="#eb2728" stroke-width="2px"/><text text-anchor="middle" pointer-events="none" font-family="sans-serif" dy="1.5625" font-size="25" fill="#FFFFFF"/><text text-anchor="middle" pointer-events="none" x="0" y="5" font-size="10px" fill="#FFFFFF" font-family="sans-serif"> Darjeeling</text></g><g class="node selected" transform="translate(-326.0975107698958,221.37282444721586)"><circle class="outline" cx="0" cy="0" r="25" fill="#D9C8AE" stroke="#c0a378" stroke-width="2px"/><text text-anchor="middle" pointer-events="none" font-family="sans-serif" dy="1.5625" font-size="25" fill="#2A2C34"/><text text-anchor="middle" pointer-events="none" x="0" y="5" font-size="10px" fill="#2A2C34" font-family="sans-serif"> Sandak…</text></g><g class="node" transform="translate(108.0444523182085,73.83080454370655)"><circle class="outline" cx="0" cy="0" r="25" fill="#F16667" stroke="#eb2728" stroke-width="2px"/><text text-anchor="middle" pointer-events="none" font-family="sans-serif" dy="1.5625" font-size="25" fill="#FFFFFF"/><text text-anchor="middle" pointer-events="none" x="0" y="5" font-size="10px" fill="#FFFFFF" font-family="sans-serif"> Rimbik</text></g><g class="node" transform="translate(243.5390274516152,121.79441682455793)"><circle class="outline" cx="0" cy="0" r="25" fill="#8DCC93" stroke="#5db665" stroke-width="2px"/><text text-anchor="middle" pointer-events="none" font-family="sans-serif" dy="1.5625" font-size="25" fill="#2A2C34"/><text text-anchor="middle" pointer-events="none" x="0" y="5" font-size="10px" fill="#2A2C34" font-family="sans-serif"> Tumbling</text></g><g class="node" transform="translate(209.94384475730723,237.1878858712901)"><circle class="outline" cx="0" cy="0" r="25" fill="#8DCC93" stroke="#5db665" stroke-width="2px"/><text text-anchor="middle" pointer-events="none" font-family="sans-serif" dy="1.5625" font-size="25" fill="#2A2C34"/><text text-anchor="middle" pointer-events="none" x="0" y="5" font-size="10px" fill="#2A2C34" font-family="sans-serif"> Gairibus</text></g><g class="node" transform="translate(-50.37050187085305,226.020255376275)"><circle class="outline" cx="0" cy="0" r="25" fill="#8DCC93" stroke="#5db665" stroke-width="2px"/><text text-anchor="middle" pointer-events="none" font-family="sans-serif" dy="1.5625" font-size="25" fill="#2A2C34"/><text text-anchor="middle" pointer-events="none" x="0" y="5" font-size="10px" fill="#2A2C34" font-family="sans-serif"> BhikeBh…</text></g><g class="node" transform="translate(74.36933748671517,-90.67644116875209)"><circle class="outline" cx="0" cy="0" r="25" fill="#8DCC93" stroke="#5db665" stroke-width="2px"/><text text-anchor="middle" pointer-events="none" font-family="sans-serif" dy="1.5625" font-size="25" fill="#2A2C34"/><text text-anchor="middle" pointer-events="none" x="0" y="5" font-size="10px" fill="#2A2C34" font-family="sans-serif"> Sirikhola</text></g><g class="node" transform="translate(-302.22375865224774,-44.826490217161734)"><circle class="outline" cx="0" cy="0" r="25" fill="#8DCC93" stroke="#5db665" stroke-width="2px"/><text text-anchor="middle" pointer-events="none" font-family="sans-serif" dy="1.5625" font-size="25" fill="#2A2C34"/><text text-anchor="middle" pointer-events="none" x="0" y="5" font-size="10px" fill="#2A2C34" font-family="sans-serif"> Rammam</text></g><g class="node" transform="translate(-63.72788879044319,114.52817450551592)"><circle class="outline" cx="0" cy="0" r="25" fill="#8DCC93" stroke="#5db665" stroke-width="2px"/><text text-anchor="middle" pointer-events="none" font-family="sans-serif" dy="1.5625" font-size="25" fill="#2A2C34"/><text text-anchor="middle" pointer-events="none" x="0" y="5" font-size="10px" fill="#2A2C34" font-family="sans-serif"> Gurdum</text></g><g class="node" transform="translate(-276.4702442568913,75.96335105900576)"><circle class="outline" cx="0" cy="0" r="25" fill="#D9C8AE" stroke="#c0a378" stroke-width="2px"/><text text-anchor="middle" pointer-events="none" font-family="sans-serif" dy="1.5625" font-size="25" fill="#2A2C34"/><text text-anchor="middle" pointer-events="none" x="0" y="5" font-size="10px" fill="#2A2C34" font-family="sans-serif"> Sabargr…</text></g></g></svg>