<svg xmlns="http://www.w3.org/2000/svg" width="429.9306640625" height="125.99098205566406" viewBox="-259.08135986328125 14.384075164794922 429.9306640625 125.99098205566406"><title>Neo4j Graph Visualization</title><desc>Created using Neo4j (http://www.neo4j.com/)</desc><g class="layer relationships"><g class="relationship" transform="translate(141.84932525430122 79.71198351134313) rotate(181.12618950899179)"><path class="outline" fill="#A5ABB6" stroke="none" d="M 21.40063509461097,12.933012701892217 L 21.90063509461097,12.06698729810778 A 71.74403596242307 71.74403596242307 0 0 0 44.90408747292708,20.515327709117145 L 44.724719732734215,21.499109805812395 A 72.74403596242307 72.74403596242307 0 0 1 21.40063509461097,12.933012701892217 Z M 66.7944941583356,22.11724539058281 L 66.67047242977529,21.124965888202084 A 71.74403596242307 71.74403596242307 0 0 0 90.11073782062269,13.977432367581812 L 88.75851037853658,11.2994702795624 L 96.584687266349,11.268562017384149 L 91.91370774340416,17.548048484941027 L 90.56148030131806,14.870086396921614 A 72.74403596242307 72.74403596242307 0 0 1 66.7944941583356,22.11724539058281"/><text text-anchor="middle" pointer-events="none" font-size="8px" fill="#000000" x="55.75001781207438" y="25.150545870830513" transform="rotate(180 55.75001781207438 22.150545870830513)" font-family="sans-serif">road</text></g><g class="relationship" transform="translate(22.971255052346258 77.37504908790905) rotate(181.00184600127574)"><path class="outline" fill="#A5ABB6" stroke="none" d="M 25 0.5 L 47.38027850592 0.5 L 47.38027850592 -0.5 L 25 -0.5 Z M 66.71621600592 0.5 L 89.09649451184 0.5 L 89.09649451184 3.5 L 96.09649451184 0 L 89.09649451184 -3.5 L 89.09649451184 -0.5 L 66.71621600592 -0.5 Z"/><text text-anchor="middle" pointer-events="none" font-size="8px" fill="#000000" x="57.04824725592" y="3" transform="rotate(180 57.04824725592 0)" font-family="sans-serif">trek</text></g><g class="relationship" transform="translate(-98.10672772196727 75.25772285911722) rotate(180.11320389020807)"><path class="outline" fill="#A5ABB6" stroke="none" d="M 25 0.5 L 52.819487264139894 0.5 L 52.819487264139894 -0.5 L 25 -0.5 Z M 72.1554247641399 0.5 L 99.97491202827979 0.5 L 99.97491202827979 3.5 L 106.97491202827979 0 L 99.97491202827979 -3.5 L 99.97491202827979 -0.5 L 72.1554247641399 -0.5 Z"/><text text-anchor="middle" pointer-events="none" font-size="8px" fill="#000000" x="62.487456014139894" y="3" transform="rotate(180 62.487456014139894 0)" font-family="sans-serif">trek</text></g><g class="relationship" transform="translate(141.84932525430122 79.71198351134313) rotate(181.12618950899179)"><path class="outline" fill="#A5ABB6" stroke="none" d="M 25 0.5 L 25.087237749922032 0.5 L 25.087237749922032 -0.5 L 25 -0.5 Z M 86.81380024992202 0.5 L 86.90103799984406 0.5 L 86.90103799984406 3.5 L 93.90103799984406 0 L 86.90103799984406 -3.5 L 86.90103799984406 -0.5 L 86.81380024992202 -0.5 Z"/><text text-anchor="middle" pointer-events="none" font-size="8px" fill="#000000" x="55.95051899992203" y="3" transform="rotate(180 55.95051899992203 0)" font-family="sans-serif">PublicTransport</text></g><g class="relationship" transform="translate(141.84932525430122 79.71198351134313) rotate(181.12618950899179)"><path class="outline" fill="#A5ABB6" stroke="none" d="M 21.40063509461097,-12.933012701892217 L 21.90063509461097,-12.06698729810778 A 71.74403596242307 71.74403596242307 0 0 1 46.2133028604616,-20.741525022105336 L 46.052183541478556,-21.728459956663045 A 72.74403596242307 72.74403596242307 0 0 0 21.40063509461097,-12.933012701892217 Z M 65.45627408720547,-22.271934422016315 L 65.35064864438083,-21.27752843559624 A 71.74403596242307 71.74403596242307 0 0 1 90.11073782062269,-13.977432367581812 L 88.75851037853658,-11.2994702795624 L 96.584687266349,-11.268562017384149 L 91.91370774340416,-17.548048484941027 L 90.56148030131806,-14.870086396921614 A 72.74403596242307 72.74403596242307 0 0 0 65.45627408720547,-22.271934422016315"/><text text-anchor="middle" pointer-events="none" font-size="8px" fill="#000000" x="55.75001781207436" y="-19.150545870830513" transform="rotate(180 55.75001781207436 -22.150545870830513)" font-family="sans-serif">trek</text></g></g><g class="layer nodes"><g class="node" transform="translate(141.84932525430122,79.71198351134313)"><circle class="outline" cx="0" cy="0" r="25" fill="#F16667" stroke="#eb2728" stroke-width="2px"/><text text-anchor="middle" pointer-events="none" font-family="sans-serif" dy="1.5625" font-size="25" fill="#FFFFFF"/><text text-anchor="middle" pointer-events="none" x="0" y="5" font-size="10px" fill="#FFFFFF" font-family="sans-serif"> Darjeeling</text></g><g class="node" transform="translate(-230.08138215450364,74.9969695565502)"><circle class="outline" cx="0" cy="0" r="25" fill="#D9C8AE" stroke="#c0a378" stroke-width="2px"/><text text-anchor="middle" pointer-events="none" font-family="sans-serif" dy="1.5625" font-size="25" fill="#2A2C34"/><text text-anchor="middle" pointer-events="none" x="0" y="5" font-size="10px" fill="#2A2C34" font-family="sans-serif"> Sandak…</text></g><g class="node selected" transform="translate(22.971255052346258,77.37504908790905)"><circle class="outline" cx="0" cy="0" r="25" fill="#F16667" stroke="#eb2728" stroke-width="2px"/><text text-anchor="middle" pointer-events="none" font-family="sans-serif" dy="1.5625" font-size="25" fill="#FFFFFF"/><text text-anchor="middle" pointer-events="none" x="0" y="5" font-size="10px" fill="#FFFFFF" font-family="sans-serif"> Rimbik</text></g><g class="node" transform="translate(-98.10672772196727,75.25772285911722)"><circle class="outline" cx="0" cy="0" r="25" fill="#8DCC93" stroke="#5db665" stroke-width="2px"/><text text-anchor="middle" pointer-events="none" font-family="sans-serif" dy="1.5625" font-size="25" fill="#2A2C34"/><text text-anchor="middle" pointer-events="none" x="0" y="5" font-size="10px" fill="#2A2C34" font-family="sans-serif"> BhikeBh…</text></g></g></svg>