<svg xmlns="http://www.w3.org/2000/svg" width="549.5836791992188" height="110.1979751586914" viewBox="-232.36660766601562 30.74292755126953 549.5836791992188 110.1979751586914"><title>Neo4j Graph Visualization</title><desc>Created using Neo4j (http://www.neo4j.com/)</desc><g class="layer relationships"><g class="relationship" transform="translate(171.0821044456766 109.10536776691951) rotate(361.38671247682777)"><path class="outline" fill="#A5ABB6" stroke="none" d="M 25 0.5 L 37.8619826060977 0.5 L 37.8619826060977 -0.5 L 25 -0.5 Z M 72.3072951060977 0.5 L 85.1692777121954 0.5 L 85.1692777121954 3.5 L 92.1692777121954 0 L 85.1692777121954 -3.5 L 85.1692777121954 -0.5 L 72.3072951060977 -0.5 Z"/><text text-anchor="middle" pointer-events="none" font-size="8px" fill="#000000" x="55.0846388560977" y="3" font-family="sans-serif">ORIGIN</text></g><g class="relationship" transform="translate(171.0821044456766 109.10536776691951) rotate(185.41348957762722)"><path class="outline" fill="#A5ABB6" stroke="none" d="M 25 0.5 L 26.8307792864978 0.5 L 26.8307792864978 -0.5 L 25 -0.5 Z M 75.5026542864978 0.5 L 77.3334335729956 0.5 L 77.3334335729956 3.5 L 84.3334335729956 0 L 77.3334335729956 -3.5 L 77.3334335729956 -0.5 L 75.5026542864978 -0.5 Z"/><text text-anchor="middle" pointer-events="none" font-size="8px" fill="#000000" x="51.1667167864978" y="3" transform="rotate(180 51.1667167864978 0)" font-family="sans-serif">DESTINA…</text></g><g class="relationship" transform="translate(-53.87358377905772 80.95595532364668) rotate(368.73244174712124)"><path class="outline" fill="#A5ABB6" stroke="none" d="M 25 0.5 L 38.013157363886236 0.5 L 38.013157363886236 -0.5 L 25 -0.5 Z M 72.45846986388624 0.5 L 85.47162722777247 0.5 L 85.47162722777247 3.5 L 92.47162722777247 0 L 85.47162722777247 -3.5 L 85.47162722777247 -0.5 L 72.45846986388624 -0.5 Z"/><text text-anchor="middle" pointer-events="none" font-size="8px" fill="#000000" x="55.235813613886236" y="3" font-family="sans-serif">ORIGIN</text></g><g class="relationship" transform="translate(-53.87358377905772 80.95595532364668) rotate(188.07633927986194)"><path class="outline" fill="#A5ABB6" stroke="none" d="M 25 0.5 L 42.40154107964635 0.5 L 42.40154107964635 -0.5 L 25 -0.5 Z M 101.58904107964635 0.5 L 118.9905821592927 0.5 L 118.9905821592927 3.5 L 125.9905821592927 0 L 118.9905821592927 -3.5 L 118.9905821592927 -0.5 L 101.58904107964635 -0.5 Z"/><text text-anchor="middle" pointer-events="none" font-size="8px" fill="#000000" x="71.99529107964635" y="3" transform="rotate(180 71.99529107964635 0)" font-family="sans-serif">DESTINATION</text></g></g><g class="layer nodes"><g class="node" transform="translate(288.2170666730934,111.94090362089901)"><circle class="outline" cx="0" cy="0" r="25" fill="#ECB5C9" stroke="#da7298" stroke-width="2px"/><text text-anchor="middle" pointer-events="none" font-family="sans-serif" dy="1.5625" font-size="25" fill="#2A2C34"/><text text-anchor="middle" pointer-events="none" x="0" y="5" font-size="10px" fill="#2A2C34" font-family="sans-serif"> MSN</text></g><g class="node" transform="translate(-203.36660503350237,59.74292873571534)"><circle class="outline" cx="0" cy="0" r="25" fill="#ECB5C9" stroke="#da7298" stroke-width="2px"/><text text-anchor="middle" pointer-events="none" font-family="sans-serif" dy="1.5625" font-size="25" fill="#2A2C34"/><text text-anchor="middle" pointer-events="none" x="0" y="5" font-size="10px" fill="#2A2C34" font-family="sans-serif"> GRR</text></g><g class="node" transform="translate(171.0821044456766,109.10536776691951)"><circle class="outline" cx="0" cy="0" r="25" fill="#4C8EDA" stroke="#2870c2" stroke-width="2px"/><text text-anchor="middle" pointer-events="none" font-family="sans-serif" dy="1.5625" font-size="25" fill="#FFFFFF"/><text text-anchor="middle" pointer-events="none" x="0" y="5" font-size="10px" fill="#FFFFFF" font-family="sans-serif"> 11/30/20…</text></g><g class="node" transform="translate(62.23632199815062,98.7905560746738)"><circle class="outline" cx="0" cy="0" r="25" fill="#ECB5C9" stroke="#da7298" stroke-width="2px"/><text text-anchor="middle" pointer-events="none" font-family="sans-serif" dy="1.5625" font-size="25" fill="#2A2C34"/><text text-anchor="middle" pointer-events="none" x="0" y="5" font-size="10px" fill="#2A2C34" font-family="sans-serif"> ORD</text></g><g class="node" transform="translate(-53.87358377905772,80.95595532364668)"><circle class="outline" cx="0" cy="0" r="25" fill="#4C8EDA" stroke="#2870c2" stroke-width="2px"/><text text-anchor="middle" pointer-events="none" font-family="sans-serif" dy="1.5625" font-size="25" fill="#FFFFFF"/><text text-anchor="middle" pointer-events="none" x="0" y="5" font-size="10px" fill="#FFFFFF" font-family="sans-serif"> 11/17/20…</text></g></g></svg>