<svg xmlns="http://www.w3.org/2000/svg" width="770.5340576171875" height="618.507080078125" viewBox="-220.38377380371094 -200.7498016357422 770.5340576171875 618.507080078125"><title>Neo4j Graph Visualization</title><desc>Created using Neo4j (http://www.neo4j.com/)</desc><g class="layer relationships"><g class="relationship" transform="translate(46.661920790316884 295.188161388926) rotate(298.29376521699123)"><path class="outline" fill="#A5ABB6" stroke="none" d="M 25 0.5 L 74.37644684676492 0.5 L 74.37644684676492 -0.5 L 25 -0.5 Z M 108.82175934676492 0.5 L 158.19820619352984 0.5 L 158.19820619352984 3.5 L 165.19820619352984 0 L 158.19820619352984 -3.5 L 158.19820619352984 -0.5 L 108.82175934676492 -0.5 Z"/><text text-anchor="middle" pointer-events="none" font-size="8px" fill="#000000" x="91.59910309676492" y="3" font-family="sans-serif">ORIGIN</text></g><g class="relationship" transform="translate(46.661920790316884 295.188161388926) rotate(512.234196950867)"><path class="outline" fill="#A5ABB6" stroke="none" d="M 25 0.5 L 53.78463005619554 0.5 L 53.78463005619554 -0.5 L 25 -0.5 Z M 112.97213005619554 0.5 L 141.75676011239108 0.5 L 141.75676011239108 3.5 L 148.75676011239108 0 L 141.75676011239108 -3.5 L 141.75676011239108 -0.5 L 112.97213005619554 -0.5 Z"/><text text-anchor="middle" pointer-events="none" font-size="8px" fill="#000000" x="83.37838005619554" y="3" transform="rotate(180 83.37838005619554 0)" font-family="sans-serif">DESTINATION</text></g><g class="relationship" transform="translate(325.9406177138337 154.9515947429088) rotate(188.19553535474734)"><path class="outline" fill="#A5ABB6" stroke="none" d="M 25 0.5 L 74.81614569723001 0.5 L 74.81614569723001 -0.5 L 25 -0.5 Z M 109.26145819723001 0.5 L 159.07760389446003 0.5 L 159.07760389446003 3.5 L 166.07760389446003 0 L 159.07760389446003 -3.5 L 159.07760389446003 -0.5 L 109.26145819723001 -0.5 Z"/><text text-anchor="middle" pointer-events="none" font-size="8px" fill="#000000" x="92.03880194723001" y="3" transform="rotate(180 92.03880194723001 0)" font-family="sans-serif">ORIGIN</text></g><g class="relationship" transform="translate(325.9406177138337 154.9515947429088) rotate(379.5757247814519)"><path class="outline" fill="#A5ABB6" stroke="none" d="M 25 0.5 L 70.49880849949325 0.5 L 70.49880849949325 -0.5 L 25 -0.5 Z M 129.68630849949324 0.5 L 175.1851169989865 0.5 L 175.1851169989865 3.5 L 182.1851169989865 0 L 175.1851169989865 -3.5 L 175.1851169989865 -0.5 L 129.68630849949324 -0.5 Z"/><text text-anchor="middle" pointer-events="none" font-size="8px" fill="#000000" x="100.09255849949325" y="3" font-family="sans-serif">DESTINATION</text></g><g class="relationship" transform="translate(309.1007541959224 -6.621054031365848) rotate(502.05593232070055)"><path class="outline" fill="#A5ABB6" stroke="none" d="M 25 0.5 L 88.51132934307766 0.5 L 88.51132934307766 -0.5 L 25 -0.5 Z M 122.95664184307766 0.5 L 186.46797118615532 0.5 L 186.46797118615532 3.5 L 193.46797118615532 0 L 186.46797118615532 -3.5 L 186.46797118615532 -0.5 L 122.95664184307766 -0.5 Z"/><text text-anchor="middle" pointer-events="none" font-size="8px" fill="#000000" x="105.73398559307766" y="3" transform="rotate(180 105.73398559307766 0)" font-family="sans-serif">ORIGIN</text></g><g class="relationship" transform="translate(309.1007541959224 -6.621054031365848) rotate(317.73714860816375)"><path class="outline" fill="#A5ABB6" stroke="none" d="M 25 0.5 L 60.727279043085616 0.5 L 60.727279043085616 -0.5 L 25 -0.5 Z M 119.91477904308562 0.5 L 155.64205808617123 0.5 L 155.64205808617123 3.5 L 162.64205808617123 0 L 155.64205808617123 -3.5 L 155.64205808617123 -0.5 L 119.91477904308562 -0.5 Z"/><text text-anchor="middle" pointer-events="none" font-size="8px" fill="#000000" x="90.32102904308562" y="3" font-family="sans-serif">DESTINATION</text></g><g class="relationship" transform="translate(242.30337206078272 242.77711866075714) rotate(227.48586469709727)"><path class="outline" fill="#A5ABB6" stroke="none" d="M 25 0.5 L 57.32802925108132 0.5 L 57.32802925108132 -0.5 L 25 -0.5 Z M 91.77334175108132 0.5 L 124.10137100216264 0.5 L 124.10137100216264 3.5 L 131.10137100216264 0 L 124.10137100216264 -3.5 L 124.10137100216264 -0.5 L 91.77334175108132 -0.5 Z"/><text text-anchor="middle" pointer-events="none" font-size="8px" fill="#000000" x="74.55068550108132" y="3" transform="rotate(180 74.55068550108132 0)" font-family="sans-serif">ORIGIN</text></g><g class="relationship" transform="translate(242.30337206078272 242.77711866075714) rotate(435.08408890913347)"><path class="outline" fill="#A5ABB6" stroke="none" d="M 25 0.5 L 42.44152326020672 0.5 L 42.44152326020672 -0.5 L 25 -0.5 Z M 101.62902326020672 0.5 L 119.07054652041344 0.5 L 119.07054652041344 3.5 L 126.07054652041344 0 L 119.07054652041344 -3.5 L 119.07054652041344 -0.5 L 101.62902326020672 -0.5 Z"/><text text-anchor="middle" pointer-events="none" font-size="8px" fill="#000000" x="72.03527326020672" y="3" font-family="sans-serif">DESTINATION</text></g><g class="relationship" transform="translate(295.30268347618494 -64.86224908027532) rotate(489.45415276626755)"><path class="outline" fill="#A5ABB6" stroke="none" d="M 25 0.5 L 103.98079969501433 0.5 L 103.98079969501433 -0.5 L 25 -0.5 Z M 138.42611219501433 0.5 L 217.40691189002865 0.5 L 217.40691189002865 3.5 L 224.40691189002865 0 L 217.40691189002865 -3.5 L 217.40691189002865 -0.5 L 138.42611219501433 -0.5 Z"/><text text-anchor="middle" pointer-events="none" font-size="8px" fill="#000000" x="121.20345594501433" y="3" transform="rotate(180 121.20345594501433 0)" font-family="sans-serif">ORIGIN</text></g><g class="relationship" transform="translate(295.30268347618494 -64.86224908027532) rotate(336.0053109041676)"><path class="outline" fill="#A5ABB6" stroke="none" d="M 25 0.5 L 50.45957554236254 0.5 L 50.45957554236254 -0.5 L 25 -0.5 Z M 109.64707554236254 0.5 L 135.1066510847251 0.5 L 135.1066510847251 3.5 L 142.1066510847251 0 L 135.1066510847251 -3.5 L 135.1066510847251 -0.5 L 109.64707554236254 -0.5 Z"/><text text-anchor="middle" pointer-events="none" font-size="8px" fill="#000000" x="80.05332554236254" y="3" font-family="sans-serif">DESTINATION</text></g><g class="relationship" transform="translate(108.6299457084192 -18.966850106708247) rotate(439.12321666305195)"><path class="outline" fill="#A5ABB6" stroke="none" d="M 25 0.5 L 53.95897374701711 0.5 L 53.95897374701711 -0.5 L 25 -0.5 Z M 88.40428624701711 0.5 L 117.36325999403422 0.5 L 117.36325999403422 3.5 L 124.36325999403422 0 L 117.36325999403422 -3.5 L 117.36325999403422 -0.5 L 88.40428624701711 -0.5 Z"/><text text-anchor="middle" pointer-events="none" font-size="8px" fill="#000000" x="71.18162999701711" y="3" font-family="sans-serif">ORIGIN</text></g><g class="relationship" transform="translate(108.6299457084192 -18.966850106708247) rotate(275.92107143246244)"><path class="outline" fill="#A5ABB6" stroke="none" d="M 25 0.5 L 43.7074681038562 0.5 L 43.7074681038562 -0.5 L 25 -0.5 Z M 102.8949681038562 0.5 L 121.6024362077124 0.5 L 121.6024362077124 3.5 L 128.6024362077124 0 L 121.6024362077124 -3.5 L 121.6024362077124 -0.5 L 102.8949681038562 -0.5 Z"/><text text-anchor="middle" pointer-events="none" font-size="8px" fill="#000000" x="73.3012181038562" y="3" font-family="sans-serif">DESTINATION</text></g><g class="relationship" transform="translate(251.72529874767068 -23.89031232461195) rotate(487.1610376369853)"><path class="outline" fill="#A5ABB6" stroke="none" d="M 25 0.5 L 74.39321383724821 0.5 L 74.39321383724821 -0.5 L 25 -0.5 Z M 108.83852633724821 0.5 L 158.23174017449642 0.5 L 158.23174017449642 3.5 L 165.23174017449642 0 L 158.23174017449642 -3.5 L 158.23174017449642 -0.5 L 108.83852633724821 -0.5 Z"/><text text-anchor="middle" pointer-events="none" font-size="8px" fill="#000000" x="91.61587008724821" y="3" transform="rotate(180 91.61587008724821 0)" font-family="sans-serif">ORIGIN</text></g><g class="relationship" transform="translate(251.72529874767068 -23.89031232461195) rotate(330.9672243562639)"><path class="outline" fill="#A5ABB6" stroke="none" d="M 25 0.5 L 79.12958719865435 0.5 L 79.12958719865435 -0.5 L 25 -0.5 Z M 138.31708719865435 0.5 L 192.4466743973087 0.5 L 192.4466743973087 3.5 L 199.4466743973087 0 L 192.4466743973087 -3.5 L 192.4466743973087 -0.5 L 138.31708719865435 -0.5 Z"/><text text-anchor="middle" pointer-events="none" font-size="8px" fill="#000000" x="108.72333719865435" y="3" font-family="sans-serif">DESTINATION</text></g><g class="relationship" transform="translate(-11.831386619160655 282.2178575421362) rotate(313.89279751409265)"><path class="outline" fill="#A5ABB6" stroke="none" d="M 25 0.5 L 86.47725711333094 0.5 L 86.47725711333094 -0.5 L 25 -0.5 Z M 120.92256961333094 0.5 L 182.39982672666187 0.5 L 182.39982672666187 3.5 L 189.39982672666187 0 L 182.39982672666187 -3.5 L 182.39982672666187 -0.5 L 120.92256961333094 -0.5 Z"/><text text-anchor="middle" pointer-events="none" font-size="8px" fill="#000000" x="103.69991336333094" y="3" font-family="sans-serif">ORIGIN</text></g><g class="relationship" transform="translate(-11.831386619160655 282.2178575421362) rotate(495.40601850831024)"><path class="outline" fill="#A5ABB6" stroke="none" d="M 25 0.5 L 33.79080546938046 0.5 L 33.79080546938046 -0.5 L 25 -0.5 Z M 92.97830546938046 0.5 L 101.76911093876092 0.5 L 101.76911093876092 3.5 L 108.76911093876092 0 L 101.76911093876092 -3.5 L 101.76911093876092 -0.5 L 92.97830546938046 -0.5 Z"/><text text-anchor="middle" pointer-events="none" font-size="8px" fill="#000000" x="63.38455546938046" y="3" transform="rotate(180 63.38455546938046 0)" font-family="sans-serif">DESTINATION</text></g><g class="relationship" transform="translate(317.5880721386135 214.2439433152498) rotate(205.57901000141766)"><path class="outline" fill="#A5ABB6" stroke="none" d="M 25 0.5 L 79.48549247716399 0.5 L 79.48549247716399 -0.5 L 25 -0.5 Z M 113.93080497716399 0.5 L 168.41629745432797 0.5 L 168.41629745432797 3.5 L 175.41629745432797 0 L 168.41629745432797 -3.5 L 168.41629745432797 -0.5 L 113.93080497716399 -0.5 Z"/><text text-anchor="middle" pointer-events="none" font-size="8px" fill="#000000" x="96.70814872716399" y="3" transform="rotate(180 96.70814872716399 0)" font-family="sans-serif">ORIGIN</text></g><g class="relationship" transform="translate(317.5880721386135 214.2439433152498) rotate(362.84763982908805)"><path class="outline" fill="#A5ABB6" stroke="none" d="M 25 0.5 L 68.8132161858418 0.5 L 68.8132161858418 -0.5 L 25 -0.5 Z M 128.00071618584178 0.5 L 171.8139323716836 0.5 L 171.8139323716836 3.5 L 178.8139323716836 0 L 171.8139323716836 -3.5 L 171.8139323716836 -0.5 L 128.00071618584178 -0.5 Z"/><text text-anchor="middle" pointer-events="none" font-size="8px" fill="#000000" x="98.4069661858418" y="3" font-family="sans-serif">DESTINATION</text></g><g class="relationship" transform="translate(0.9446993668771709 45.26989026979864) rotate(391.2486049819242)"><path class="outline" fill="#A5ABB6" stroke="none" d="M 25 0.5 L 58.74033988092822 0.5 L 58.74033988092822 -0.5 L 25 -0.5 Z M 93.18565238092822 0.5 L 126.92599226185644 0.5 L 126.92599226185644 3.5 L 133.92599226185644 0 L 126.92599226185644 -3.5 L 126.92599226185644 -0.5 L 93.18565238092822 -0.5 Z"/><text text-anchor="middle" pointer-events="none" font-size="8px" fill="#000000" x="75.96299613092822" y="3" font-family="sans-serif">ORIGIN</text></g><g class="relationship" transform="translate(0.9446993668771709 45.26989026979864) rotate(205.97700597822916)"><path class="outline" fill="#A5ABB6" stroke="none" d="M 25 0.5 L 51.931548552373485 0.5 L 51.931548552373485 -0.5 L 25 -0.5 Z M 111.11904855237348 0.5 L 138.05059710474697 0.5 L 138.05059710474697 3.5 L 145.05059710474697 0 L 138.05059710474697 -3.5 L 138.05059710474697 -0.5 L 111.11904855237348 -0.5 Z"/><text text-anchor="middle" pointer-events="none" font-size="8px" fill="#000000" x="81.52529855237348" y="3" transform="rotate(180 81.52529855237348 0)" font-family="sans-serif">DESTINATION</text></g><g class="relationship" transform="translate(157.281420819535 302.5927824441056) rotate(263.32476903065435)"><path class="outline" fill="#A5ABB6" stroke="none" d="M 25 0.5 L 67.31396730602306 0.5 L 67.31396730602306 -0.5 L 25 -0.5 Z M 101.75927980602306 0.5 L 144.07324711204612 0.5 L 144.07324711204612 3.5 L 151.07324711204612 0 L 144.07324711204612 -3.5 L 144.07324711204612 -0.5 L 101.75927980602306 -0.5 Z"/><text text-anchor="middle" pointer-events="none" font-size="8px" fill="#000000" x="84.53662355602306" y="3" transform="rotate(180 84.53662355602306 0)" font-family="sans-serif">ORIGIN</text></g><g class="relationship" transform="translate(157.281420819535 302.5927824441056) rotate(394.8144717364442)"><path class="outline" fill="#A5ABB6" stroke="none" d="M 25 0.5 L 42.367226647373855 0.5 L 42.367226647373855 -0.5 L 25 -0.5 Z M 101.55472664737385 0.5 L 118.92195329474771 0.5 L 118.92195329474771 3.5 L 125.92195329474771 0 L 118.92195329474771 -3.5 L 118.92195329474771 -0.5 L 101.55472664737385 -0.5 Z"/><text text-anchor="middle" pointer-events="none" font-size="8px" fill="#000000" x="71.96097664737385" y="3" font-family="sans-serif">DESTINATION</text></g><g class="relationship" transform="translate(30.680841034952113 -8.378145108629065) rotate(412.05038079399225)"><path class="outline" fill="#A5ABB6" stroke="none" d="M 25 0.5 L 65.56925314586377 0.5 L 65.56925314586377 -0.5 L 25 -0.5 Z M 100.01456564586377 0.5 L 140.58381879172754 0.5 L 140.58381879172754 3.5 L 147.58381879172754 0 L 140.58381879172754 -3.5 L 140.58381879172754 -0.5 L 100.01456564586377 -0.5 Z"/><text text-anchor="middle" pointer-events="none" font-size="8px" fill="#000000" x="82.79190939586377" y="3" font-family="sans-serif">ORIGIN</text></g><g class="relationship" transform="translate(30.680841034952113 -8.378145108629065) rotate(219.97043594443886)"><path class="outline" fill="#A5ABB6" stroke="none" d="M 25 0.5 L 54.174691423495815 0.5 L 54.174691423495815 -0.5 L 25 -0.5 Z M 113.36219142349582 0.5 L 142.53688284699163 0.5 L 142.53688284699163 3.5 L 149.53688284699163 0 L 142.53688284699163 -3.5 L 142.53688284699163 -0.5 L 113.36219142349582 -0.5 Z"/><text text-anchor="middle" pointer-events="none" font-size="8px" fill="#000000" x="83.76844142349582" y="3" transform="rotate(180 83.76844142349582 0)" font-family="sans-serif">DESTINATION</text></g><g class="relationship" transform="translate(-42.57086293715718 97.96770122858749) rotate(369.4150441237347)"><path class="outline" fill="#A5ABB6" stroke="none" d="M 25 0.5 L 70.19471301545879 0.5 L 70.19471301545879 -0.5 L 25 -0.5 Z M 104.64002551545879 0.5 L 149.83473853091758 0.5 L 149.83473853091758 3.5 L 156.83473853091758 0 L 149.83473853091758 -3.5 L 149.83473853091758 -0.5 L 104.64002551545879 -0.5 Z"/><text text-anchor="middle" pointer-events="none" font-size="8px" fill="#000000" x="87.41736926545879" y="3" font-family="sans-serif">ORIGIN</text></g><g class="relationship" transform="translate(-42.57086293715718 97.96770122858749) rotate(515.5840529148965)"><path class="outline" fill="#A5ABB6" stroke="none" d="M 25 0.5 L 48.62052395828738 0.5 L 48.62052395828738 -0.5 L 25 -0.5 Z M 107.80802395828738 0.5 L 131.42854791657476 0.5 L 131.42854791657476 3.5 L 138.42854791657476 0 L 131.42854791657476 -3.5 L 131.42854791657476 -0.5 L 107.80802395828738 -0.5 Z"/><text text-anchor="middle" pointer-events="none" font-size="8px" fill="#000000" x="78.21427395828738" y="3" transform="rotate(180 78.21427395828738 0)" font-family="sans-serif">DESTINATION</text></g><g class="relationship" transform="translate(366.3679048761949 10.905869314703303) rotate(513.0309347925595)"><path class="outline" fill="#A5ABB6" stroke="none" d="M 25 0.5 L 108.0588819674426 0.5 L 108.0588819674426 -0.5 L 25 -0.5 Z M 142.5041944674426 0.5 L 225.5630764348852 0.5 L 225.5630764348852 3.5 L 232.5630764348852 0 L 225.5630764348852 -3.5 L 225.5630764348852 -0.5 L 142.5041944674426 -0.5 Z"/><text text-anchor="middle" pointer-events="none" font-size="8px" fill="#000000" x="125.2815382174426" y="3" transform="rotate(180 125.2815382174426 0)" font-family="sans-serif">ORIGIN</text></g><g class="relationship" transform="translate(366.3679048761949 10.905869314703303) rotate(299.5864152816052)"><path class="outline" fill="#A5ABB6" stroke="none" d="M 25 0.5 L 49.542162934955044 0.5 L 49.542162934955044 -0.5 L 25 -0.5 Z M 108.72966293495504 0.5 L 133.2718258699101 0.5 L 133.2718258699101 3.5 L 140.2718258699101 0 L 133.2718258699101 -3.5 L 133.2718258699101 -0.5 L 108.72966293495504 -0.5 Z"/><text text-anchor="middle" pointer-events="none" font-size="8px" fill="#000000" x="79.13591293495504" y="3" font-family="sans-serif">DESTINATION</text></g><g class="relationship" transform="translate(28.47114559896309 238.02969435580354) rotate(314.48295267063884)"><path class="outline" fill="#A5ABB6" stroke="none" d="M 25 0.5 L 56.58841801035631 0.5 L 56.58841801035631 -0.5 L 25 -0.5 Z M 91.0337305103563 0.5 L 122.62214852071261 0.5 L 122.62214852071261 3.5 L 129.6221485207126 0 L 122.62214852071261 -3.5 L 122.62214852071261 -0.5 L 91.0337305103563 -0.5 Z"/><text text-anchor="middle" pointer-events="none" font-size="8px" fill="#000000" x="73.8110742603563" y="3" font-family="sans-serif">ORIGIN</text></g><g class="relationship" transform="translate(28.47114559896309 238.02969435580354) rotate(494.46716824774364)"><path class="outline" fill="#A5ABB6" stroke="none" d="M 25 0.5 L 63.66528197208797 0.5 L 63.66528197208797 -0.5 L 25 -0.5 Z M 122.85278197208797 0.5 L 161.51806394417594 0.5 L 161.51806394417594 3.5 L 168.51806394417594 0 L 161.51806394417594 -3.5 L 161.51806394417594 -0.5 L 122.85278197208797 -0.5 Z"/><text text-anchor="middle" pointer-events="none" font-size="8px" fill="#000000" x="93.25903197208797" y="3" transform="rotate(180 93.25903197208797 0)" font-family="sans-serif">DESTINATION</text></g><g class="relationship" transform="translate(322.8141165621453 51.77920723522742) rotate(517.792379163612)"><path class="outline" fill="#A5ABB6" stroke="none" d="M 25 0.5 L 79.72863456240131 0.5 L 79.72863456240131 -0.5 L 25 -0.5 Z M 114.17394706240131 0.5 L 168.90258162480262 0.5 L 168.90258162480262 3.5 L 175.90258162480262 0 L 168.90258162480262 -3.5 L 168.90258162480262 -0.5 L 114.17394706240131 -0.5 Z"/><text text-anchor="middle" pointer-events="none" font-size="8px" fill="#000000" x="96.95129081240131" y="3" transform="rotate(180 96.95129081240131 0)" font-family="sans-serif">ORIGIN</text></g><g class="relationship" transform="translate(322.8141165621453 51.77920723522742) rotate(304.13695198594866)"><path class="outline" fill="#A5ABB6" stroke="none" d="M 25 0.5 L 78.41767861735711 0.5 L 78.41767861735711 -0.5 L 25 -0.5 Z M 137.60517861735713 0.5 L 191.02285723471422 0.5 L 191.02285723471422 3.5 L 198.02285723471422 0 L 191.02285723471422 -3.5 L 191.02285723471422 -0.5 L 137.60517861735713 -0.5 Z"/><text text-anchor="middle" pointer-events="none" font-size="8px" fill="#000000" x="108.01142861735711" y="3" font-family="sans-serif">DESTINATION</text></g><g class="relationship" transform="translate(-27.351658093519717 155.8842407224322) rotate(350.262810825487)"><path class="outline" fill="#A5ABB6" stroke="none" d="M 25 0.5 L 62.56016552553612 0.5 L 62.56016552553612 -0.5 L 25 -0.5 Z M 97.00547802553612 0.5 L 134.56564355107224 0.5 L 134.56564355107224 3.5 L 141.56564355107224 0 L 134.56564355107224 -3.5 L 134.56564355107224 -0.5 L 97.00547802553612 -0.5 Z"/><text text-anchor="middle" pointer-events="none" font-size="8px" fill="#000000" x="79.78282177553612" y="3" font-family="sans-serif">ORIGIN</text></g><g class="relationship" transform="translate(-27.351658093519717 155.8842407224322) rotate(536.6373714348898)"><path class="outline" fill="#A5ABB6" stroke="none" d="M 25 0.5 L 49.063758974465514 0.5 L 49.063758974465514 -0.5 L 25 -0.5 Z M 108.25125897446551 0.5 L 132.31501794893103 0.5 L 132.31501794893103 3.5 L 139.31501794893103 0 L 132.31501794893103 -3.5 L 132.31501794893103 -0.5 L 108.25125897446551 -0.5 Z"/><text text-anchor="middle" pointer-events="none" font-size="8px" fill="#000000" x="78.65750897446551" y="3" transform="rotate(180 78.65750897446551 0)" font-family="sans-serif">DESTINATION</text></g><g class="relationship" transform="translate(237.9874924271137 -82.10117241207622) rotate(475.7434995984462)"><path class="outline" fill="#A5ABB6" stroke="none" d="M 25 0.5 L 95.74411390080103 0.5 L 95.74411390080103 -0.5 L 25 -0.5 Z M 130.18942640080104 0.5 L 200.93354030160205 0.5 L 200.93354030160205 3.5 L 207.93354030160205 0 L 200.93354030160205 -3.5 L 200.93354030160205 -0.5 L 130.18942640080104 -0.5 Z"/><text text-anchor="middle" pointer-events="none" font-size="8px" fill="#000000" x="112.96677015080103" y="3" transform="rotate(180 112.96677015080103 0)" font-family="sans-serif">ORIGIN</text></g><g class="relationship" transform="translate(237.9874924271137 -82.10117241207622) rotate(346.4217656663917)"><path class="outline" fill="#A5ABB6" stroke="none" d="M 25 0.5 L 74.91558960836701 0.5 L 74.91558960836701 -0.5 L 25 -0.5 Z M 134.10308960836701 0.5 L 184.01867921673403 0.5 L 184.01867921673403 3.5 L 191.01867921673403 0 L 184.01867921673403 -3.5 L 184.01867921673403 -0.5 L 134.10308960836701 -0.5 Z"/><text text-anchor="middle" pointer-events="none" font-size="8px" fill="#000000" x="104.50933960836701" y="3" font-family="sans-serif">DESTINATION</text></g><g class="relationship" transform="translate(217.00382741634013 297.11741919770316) rotate(244.66894453011827)"><path class="outline" fill="#A5ABB6" stroke="none" d="M 25 0.5 L 72.98987124800126 0.5 L 72.98987124800126 -0.5 L 25 -0.5 Z M 107.43518374800126 0.5 L 155.42505499600253 0.5 L 155.42505499600253 3.5 L 162.42505499600253 0 L 155.42505499600253 -3.5 L 155.42505499600253 -0.5 L 107.43518374800126 -0.5 Z"/><text text-anchor="middle" pointer-events="none" font-size="8px" fill="#000000" x="90.21252749800126" y="3" transform="rotate(180 90.21252749800126 0)" font-family="sans-serif">ORIGIN</text></g><g class="relationship" transform="translate(217.00382741634013 297.11741919770316) rotate(414.9923024707936)"><path class="outline" fill="#A5ABB6" stroke="none" d="M 25 0.5 L 25.95865271650456 0.5 L 25.95865271650456 -0.5 L 25 -0.5 Z M 78.92349646650456 0.5 L 79.88214918300912 0.5 L 79.88214918300912 3.5 L 86.88214918300912 0 L 79.88214918300912 -3.5 L 79.88214918300912 -0.5 L 78.92349646650456 -0.5 Z"/><text text-anchor="middle" pointer-events="none" font-size="8px" fill="#000000" x="52.44107459150456" y="3" font-family="sans-serif">DESTINAT…</text></g><g class="relationship" transform="translate(182.55642616407115 248.2198964190756) rotate(249.21422045940602)"><path class="outline" fill="#A5ABB6" stroke="none" d="M 25 0.5 L 43.72540389122942 0.5 L 43.72540389122942 -0.5 L 25 -0.5 Z M 78.17071639122942 0.5 L 96.89612028245884 0.5 L 96.89612028245884 3.5 L 103.89612028245884 0 L 96.89612028245884 -3.5 L 96.89612028245884 -0.5 L 78.17071639122942 -0.5 Z"/><text text-anchor="middle" pointer-events="none" font-size="8px" fill="#000000" x="60.94806014122942" y="3" transform="rotate(180 60.94806014122942 0)" font-family="sans-serif">ORIGIN</text></g><g class="relationship" transform="translate(182.55642616407115 248.2198964190756) rotate(414.93785598960676)"><path class="outline" fill="#A5ABB6" stroke="none" d="M 25 0.5 L 52.75373628025062 0.5 L 52.75373628025062 -0.5 L 25 -0.5 Z M 111.94123628025062 0.5 L 139.69497256050124 0.5 L 139.69497256050124 3.5 L 146.69497256050124 0 L 139.69497256050124 -3.5 L 139.69497256050124 -0.5 L 111.94123628025062 -0.5 Z"/><text text-anchor="middle" pointer-events="none" font-size="8px" fill="#000000" x="82.34748628025062" y="3" font-family="sans-serif">DESTINATION</text></g><g class="relationship" transform="translate(-30.03009730881682 225.09458230236223) rotate(329.72935112077903)"><path class="outline" fill="#A5ABB6" stroke="none" d="M 25 0.5 L 75.86957971825098 0.5 L 75.86957971825098 -0.5 L 25 -0.5 Z M 110.31489221825098 0.5 L 161.18447193650195 0.5 L 161.18447193650195 3.5 L 168.18447193650195 0 L 161.18447193650195 -3.5 L 161.18447193650195 -0.5 L 110.31489221825098 -0.5 Z"/><text text-anchor="middle" pointer-events="none" font-size="8px" fill="#000000" x="93.09223596825098" y="3" font-family="sans-serif">ORIGIN</text></g><g class="relationship" transform="translate(-30.03009730881682 225.09458230236223) rotate(477.0300161295096)"><path class="outline" fill="#A5ABB6" stroke="none" d="M 25 0.5 L 51.68677843073529 0.5 L 51.68677843073529 -0.5 L 25 -0.5 Z M 110.87427843073529 0.5 L 137.56105686147058 0.5 L 137.56105686147058 3.5 L 144.56105686147058 0 L 137.56105686147058 -3.5 L 137.56105686147058 -0.5 L 110.87427843073529 -0.5 Z"/><text text-anchor="middle" pointer-events="none" font-size="8px" fill="#000000" x="81.28052843073529" y="3" transform="rotate(180 81.28052843073529 0)" font-family="sans-serif">DESTINATION</text></g><g class="relationship" transform="translate(265.51655983804864 34.36180042825642) rotate(504.0455502733955)"><path class="outline" fill="#A5ABB6" stroke="none" d="M 25 0.5 L 58.773745862660604 0.5 L 58.773745862660604 -0.5 L 25 -0.5 Z M 93.2190583626606 0.5 L 126.99280422532121 0.5 L 126.99280422532121 3.5 L 133.9928042253212 0 L 126.99280422532121 -3.5 L 126.99280422532121 -0.5 L 93.2190583626606 -0.5 Z"/><text text-anchor="middle" pointer-events="none" font-size="8px" fill="#000000" x="75.9964021126606" y="3" transform="rotate(180 75.9964021126606 0)" font-family="sans-serif">ORIGIN</text></g><g class="relationship" transform="translate(265.51655983804864 34.36180042825642) rotate(317.50138408521997)"><path class="outline" fill="#A5ABB6" stroke="none" d="M 25 0.5 L 90.63710238004435 0.5 L 90.63710238004435 -0.5 L 25 -0.5 Z M 149.82460238004435 0.5 L 215.4617047600887 0.5 L 215.4617047600887 3.5 L 222.4617047600887 0 L 215.4617047600887 -3.5 L 215.4617047600887 -0.5 L 149.82460238004435 -0.5 Z"/><text text-anchor="middle" pointer-events="none" font-size="8px" fill="#000000" x="120.23085238004435" y="3" font-family="sans-serif">DESTINATION</text></g></g><g class="layer nodes"><g class="node" transform="translate(136.8144240503081,127.71313699664904)"><circle class="outline" cx="0" cy="0" r="25" fill="#ECB5C9" stroke="#da7298" stroke-width="2px"/><text text-anchor="middle" pointer-events="none" font-family="sans-serif" dy="1.5625" font-size="25" fill="#2A2C34"/><text text-anchor="middle" pointer-events="none" x="0" y="5" font-size="10px" fill="#2A2C34" font-family="sans-serif"> LAX</text></g><g class="node" transform="translate(-107.08834352077552,376.1342416462445)"><circle class="outline" cx="0" cy="0" r="25" fill="#ECB5C9" stroke="#da7298" stroke-width="2px"/><text text-anchor="middle" pointer-events="none" font-family="sans-serif" dy="1.5625" font-size="25" fill="#2A2C34"/><text text-anchor="middle" pointer-events="none" x="0" y="5" font-size="10px" fill="#2A2C34" font-family="sans-serif"> SMF</text></g><g class="node" transform="translate(521.1503299460874,224.36946676506494)"><circle class="outline" cx="0" cy="0" r="25" fill="#ECB5C9" stroke="#da7298" stroke-width="2px"/><text text-anchor="middle" pointer-events="none" font-family="sans-serif" dy="1.5625" font-size="25" fill="#2A2C34"/><text text-anchor="middle" pointer-events="none" x="0" y="5" font-size="10px" fill="#2A2C34" font-family="sans-serif"> TUS</text></g><g class="node" transform="translate(447.9685050393739,-132.81649665309894)"><circle class="outline" cx="0" cy="0" r="25" fill="#ECB5C9" stroke="#da7298" stroke-width="2px"/><text text-anchor="middle" pointer-events="none" font-family="sans-serif" dy="1.5625" font-size="25" fill="#2A2C34"/><text text-anchor="middle" pointer-events="none" x="0" y="5" font-size="10px" fill="#2A2C34" font-family="sans-serif"> ABQ</text></g><g class="node" transform="translate(281.18910397768536,388.75728813340567)"><circle class="outline" cx="0" cy="0" r="25" fill="#ECB5C9" stroke="#da7298" stroke-width="2px"/><text text-anchor="middle" pointer-events="none" font-family="sans-serif" dy="1.5625" font-size="25" fill="#2A2C34"/><text text-anchor="middle" pointer-events="none" x="0" y="5" font-size="10px" fill="#2A2C34" font-family="sans-serif"> FAT</text></g><g class="node" transform="translate(124.47531921172356,-171.74980906314795)"><circle class="outline" cx="0" cy="0" r="25" fill="#ECB5C9" stroke="#da7298" stroke-width="2px"/><text text-anchor="middle" pointer-events="none" font-family="sans-serif" dy="1.5625" font-size="25" fill="#2A2C34"/><text text-anchor="middle" pointer-events="none" x="0" y="5" font-size="10px" fill="#2A2C34" font-family="sans-serif"> BOS</text></g><g class="node" transform="translate(-151.92566918488106,-29.214040846453486)"><circle class="outline" cx="0" cy="0" r="25" fill="#ECB5C9" stroke="#da7298" stroke-width="2px"/><text text-anchor="middle" pointer-events="none" font-family="sans-serif" dy="1.5625" font-size="25" fill="#2A2C34"/><text text-anchor="middle" pointer-events="none" x="0" y="5" font-size="10px" fill="#2A2C34" font-family="sans-serif"> IAH</text></g><g class="node" transform="translate(-103.08003939340418,-120.49928647356276)"><circle class="outline" cx="0" cy="0" r="25" fill="#ECB5C9" stroke="#da7298" stroke-width="2px"/><text text-anchor="middle" pointer-events="none" font-family="sans-serif" dy="1.5625" font-size="25" fill="#2A2C34"/><text text-anchor="middle" pointer-events="none" x="0" y="5" font-size="10px" fill="#2A2C34" font-family="sans-serif"> LAS</text></g><g class="node" transform="translate(-191.38377461832232,165.52217991870776)"><circle class="outline" cx="0" cy="0" r="25" fill="#ECB5C9" stroke="#da7298" stroke-width="2px"/><text text-anchor="middle" pointer-events="none" font-family="sans-serif" dy="1.5625" font-size="25" fill="#2A2C34"/><text text-anchor="middle" pointer-events="none" x="0" y="5" font-size="10px" fill="#2A2C34" font-family="sans-serif"> EWR</text></g><g class="node" transform="translate(46.661920790316884,295.188161388926)"><circle class="outline" cx="0" cy="0" r="25" fill="#4C8EDA" stroke="#2870c2" stroke-width="2px"/><text text-anchor="middle" pointer-events="none" font-family="sans-serif" dy="1.5625" font-size="25" fill="#FFFFFF"/><text text-anchor="middle" pointer-events="none" x="0" y="5" font-size="10px" fill="#FFFFFF" font-family="sans-serif"> 11/3/2015</text></g><g class="node" transform="translate(325.9406177138337,154.9515947429088)"><circle class="outline" cx="0" cy="0" r="25" fill="#4C8EDA" stroke="#2870c2" stroke-width="2px"/><text text-anchor="middle" pointer-events="none" font-family="sans-serif" dy="1.5625" font-size="25" fill="#FFFFFF"/><text text-anchor="middle" pointer-events="none" x="0" y="5" font-size="10px" fill="#FFFFFF" font-family="sans-serif"> 11/2/2015</text></g><g class="node" transform="translate(309.1007541959224,-6.621054031365848)"><circle class="outline" cx="0" cy="0" r="25" fill="#4C8EDA" stroke="#2870c2" stroke-width="2px"/><text text-anchor="middle" pointer-events="none" font-family="sans-serif" dy="1.5625" font-size="25" fill="#FFFFFF"/><text text-anchor="middle" pointer-events="none" x="0" y="5" font-size="10px" fill="#FFFFFF" font-family="sans-serif"> 11/2/2015</text></g><g class="node" transform="translate(242.30337206078272,242.77711866075714)"><circle class="outline" cx="0" cy="0" r="25" fill="#4C8EDA" stroke="#2870c2" stroke-width="2px"/><text text-anchor="middle" pointer-events="none" font-family="sans-serif" dy="1.5625" font-size="25" fill="#FFFFFF"/><text text-anchor="middle" pointer-events="none" x="0" y="5" font-size="10px" fill="#FFFFFF" font-family="sans-serif"> 11/4/2015</text></g><g class="node" transform="translate(295.30268347618494,-64.86224908027532)"><circle class="outline" cx="0" cy="0" r="25" fill="#4C8EDA" stroke="#2870c2" stroke-width="2px"/><text text-anchor="middle" pointer-events="none" font-family="sans-serif" dy="1.5625" font-size="25" fill="#FFFFFF"/><text text-anchor="middle" pointer-events="none" x="0" y="5" font-size="10px" fill="#FFFFFF" font-family="sans-serif"> 11/1/2015</text></g><g class="node" transform="translate(108.6299457084192,-18.966850106708247)"><circle class="outline" cx="0" cy="0" r="25" fill="#4C8EDA" stroke="#2870c2" stroke-width="2px"/><text text-anchor="middle" pointer-events="none" font-family="sans-serif" dy="1.5625" font-size="25" fill="#FFFFFF"/><text text-anchor="middle" pointer-events="none" x="0" y="5" font-size="10px" fill="#FFFFFF" font-family="sans-serif"> 11/29/20…</text></g><g class="node" transform="translate(251.72529874767068,-23.89031232461195)"><circle class="outline" cx="0" cy="0" r="25" fill="#4C8EDA" stroke="#2870c2" stroke-width="2px"/><text text-anchor="middle" pointer-events="none" font-family="sans-serif" dy="1.5625" font-size="25" fill="#FFFFFF"/><text text-anchor="middle" pointer-events="none" x="0" y="5" font-size="10px" fill="#FFFFFF" font-family="sans-serif"> 11/4/2015</text></g><g class="node" transform="translate(-11.831386619160655,282.2178575421362)"><circle class="outline" cx="0" cy="0" r="25" fill="#4C8EDA" stroke="#2870c2" stroke-width="2px"/><text text-anchor="middle" pointer-events="none" font-family="sans-serif" dy="1.5625" font-size="25" fill="#FFFFFF"/><text text-anchor="middle" pointer-events="none" x="0" y="5" font-size="10px" fill="#FFFFFF" font-family="sans-serif"> 11/2/2015</text></g><g class="node" transform="translate(317.5880721386135,214.2439433152498)"><circle class="outline" cx="0" cy="0" r="25" fill="#4C8EDA" stroke="#2870c2" stroke-width="2px"/><text text-anchor="middle" pointer-events="none" font-family="sans-serif" dy="1.5625" font-size="25" fill="#FFFFFF"/><text text-anchor="middle" pointer-events="none" x="0" y="5" font-size="10px" fill="#FFFFFF" font-family="sans-serif"> 11/1/2015</text></g><g class="node" transform="translate(0.9446993668771709,45.26989026979864)"><circle class="outline" cx="0" cy="0" r="25" fill="#4C8EDA" stroke="#2870c2" stroke-width="2px"/><text text-anchor="middle" pointer-events="none" font-family="sans-serif" dy="1.5625" font-size="25" fill="#FFFFFF"/><text text-anchor="middle" pointer-events="none" x="0" y="5" font-size="10px" fill="#FFFFFF" font-family="sans-serif"> 11/30/20…</text></g><g class="node" transform="translate(157.281420819535,302.5927824441056)"><circle class="outline" cx="0" cy="0" r="25" fill="#4C8EDA" stroke="#2870c2" stroke-width="2px"/><text text-anchor="middle" pointer-events="none" font-family="sans-serif" dy="1.5625" font-size="25" fill="#FFFFFF"/><text text-anchor="middle" pointer-events="none" x="0" y="5" font-size="10px" fill="#FFFFFF" font-family="sans-serif"> 11/1/2015</text></g><g class="node" transform="translate(30.680841034952113,-8.378145108629065)"><circle class="outline" cx="0" cy="0" r="25" fill="#4C8EDA" stroke="#2870c2" stroke-width="2px"/><text text-anchor="middle" pointer-events="none" font-family="sans-serif" dy="1.5625" font-size="25" fill="#FFFFFF"/><text text-anchor="middle" pointer-events="none" x="0" y="5" font-size="10px" fill="#FFFFFF" font-family="sans-serif"> 11/29/20…</text></g><g class="node" transform="translate(-42.57086293715718,97.96770122858749)"><circle class="outline" cx="0" cy="0" r="25" fill="#4C8EDA" stroke="#2870c2" stroke-width="2px"/><text text-anchor="middle" pointer-events="none" font-family="sans-serif" dy="1.5625" font-size="25" fill="#FFFFFF"/><text text-anchor="middle" pointer-events="none" x="0" y="5" font-size="10px" fill="#FFFFFF" font-family="sans-serif"> 11/29/20…</text></g><g class="node" transform="translate(366.3679048761949,10.905869314703303)"><circle class="outline" cx="0" cy="0" r="25" fill="#4C8EDA" stroke="#2870c2" stroke-width="2px"/><text text-anchor="middle" pointer-events="none" font-family="sans-serif" dy="1.5625" font-size="25" fill="#FFFFFF"/><text text-anchor="middle" pointer-events="none" x="0" y="5" font-size="10px" fill="#FFFFFF" font-family="sans-serif"> 11/3/2015</text></g><g class="node" transform="translate(28.47114559896309,238.02969435580354)"><circle class="outline" cx="0" cy="0" r="25" fill="#4C8EDA" stroke="#2870c2" stroke-width="2px"/><text text-anchor="middle" pointer-events="none" font-family="sans-serif" dy="1.5625" font-size="25" fill="#FFFFFF"/><text text-anchor="middle" pointer-events="none" x="0" y="5" font-size="10px" fill="#FFFFFF" font-family="sans-serif"> 11/1/2015</text></g><g class="node" transform="translate(322.8141165621453,51.77920723522742)"><circle class="outline" cx="0" cy="0" r="25" fill="#4C8EDA" stroke="#2870c2" stroke-width="2px"/><text text-anchor="middle" pointer-events="none" font-family="sans-serif" dy="1.5625" font-size="25" fill="#FFFFFF"/><text text-anchor="middle" pointer-events="none" x="0" y="5" font-size="10px" fill="#FFFFFF" font-family="sans-serif"> 11/2/2015</text></g><g class="node" transform="translate(-27.351658093519717,155.8842407224322)"><circle class="outline" cx="0" cy="0" r="25" fill="#4C8EDA" stroke="#2870c2" stroke-width="2px"/><text text-anchor="middle" pointer-events="none" font-family="sans-serif" dy="1.5625" font-size="25" fill="#FFFFFF"/><text text-anchor="middle" pointer-events="none" x="0" y="5" font-size="10px" fill="#FFFFFF" font-family="sans-serif"> 11/30/20…</text></g><g class="node" transform="translate(237.9874924271137,-82.10117241207622)"><circle class="outline" cx="0" cy="0" r="25" fill="#4C8EDA" stroke="#2870c2" stroke-width="2px"/><text text-anchor="middle" pointer-events="none" font-family="sans-serif" dy="1.5625" font-size="25" fill="#FFFFFF"/><text text-anchor="middle" pointer-events="none" x="0" y="5" font-size="10px" fill="#FFFFFF" font-family="sans-serif"> 11/3/2015</text></g><g class="node" transform="translate(217.00382741634013,297.11741919770316)"><circle class="outline" cx="0" cy="0" r="25" fill="#4C8EDA" stroke="#2870c2" stroke-width="2px"/><text text-anchor="middle" pointer-events="none" font-family="sans-serif" dy="1.5625" font-size="25" fill="#FFFFFF"/><text text-anchor="middle" pointer-events="none" x="0" y="5" font-size="10px" fill="#FFFFFF" font-family="sans-serif"> 11/3/2015</text></g><g class="node" transform="translate(182.55642616407115,248.2198964190756)"><circle class="outline" cx="0" cy="0" r="25" fill="#4C8EDA" stroke="#2870c2" stroke-width="2px"/><text text-anchor="middle" pointer-events="none" font-family="sans-serif" dy="1.5625" font-size="25" fill="#FFFFFF"/><text text-anchor="middle" pointer-events="none" x="0" y="5" font-size="10px" fill="#FFFFFF" font-family="sans-serif"> 11/2/2015</text></g><g class="node" transform="translate(-30.03009730881682,225.09458230236223)"><circle class="outline" cx="0" cy="0" r="25" fill="#4C8EDA" stroke="#2870c2" stroke-width="2px"/><text text-anchor="middle" pointer-events="none" font-family="sans-serif" dy="1.5625" font-size="25" fill="#FFFFFF"/><text text-anchor="middle" pointer-events="none" x="0" y="5" font-size="10px" fill="#FFFFFF" font-family="sans-serif"> 11/4/2015</text></g><g class="node" transform="translate(265.51655983804864,34.36180042825642)"><circle class="outline" cx="0" cy="0" r="25" fill="#4C8EDA" stroke="#2870c2" stroke-width="2px"/><text text-anchor="middle" pointer-events="none" font-family="sans-serif" dy="1.5625" font-size="25" fill="#FFFFFF"/><text text-anchor="middle" pointer-events="none" x="0" y="5" font-size="10px" fill="#FFFFFF" font-family="sans-serif"> 11/1/2015</text></g></g></svg>