<svg xmlns="http://www.w3.org/2000/svg" width="293.7961120605469" height="292.22735595703125" viewBox="-51.2459716796875 -55.644256591796875 293.7961120605469 292.22735595703125"><title>Neo4j Graph Visualization</title><desc>Created using Neo4j (http://www.neo4j.com/)</desc><g class="layer relationships"><g class="relationship" transform="translate(123.21822908318663 207.58311053219197) rotate(255.8363623718111)"><path class="outline" fill="#A5ABB6" stroke="none" d="M 25 0.5 L 33.95266045131374 0.5 L 33.95266045131374 -0.5 L 25 -0.5 Z M 79.51516045131373 0.5 L 88.46782090262748 0.5 L 88.46782090262748 3.5 L 95.46782090262748 0 L 88.46782090262748 -3.5 L 88.46782090262748 -0.5 L 79.51516045131373 -0.5 Z"/><text text-anchor="middle" pointer-events="none" font-size="8px" fill="#000000" x="56.73391045131374" y="3" transform="rotate(180 56.73391045131374 0)" font-family="sans-serif">ACTED_IN</text></g><g class="relationship" transform="translate(192.1275100127995 160.34769685107173) rotate(215.26451028194992)"><path class="outline" fill="#A5ABB6" stroke="none" d="M 25 0.5 L 33.30414346793427 0.5 L 33.30414346793427 -0.5 L 25 -0.5 Z M 80.19476846793427 0.5 L 88.49891193586853 0.5 L 88.49891193586853 3.5 L 95.49891193586853 0 L 88.49891193586853 -3.5 L 88.49891193586853 -0.5 L 80.19476846793427 -0.5 Z"/><text text-anchor="middle" pointer-events="none" font-size="8px" fill="#000000" x="56.74945596793427" y="3" transform="rotate(180 56.74945596793427 0)" font-family="sans-serif">DIRECTED</text></g><g class="relationship" transform="translate(213.55015004645645 75.8015904755245) rotate(532.875153331629)"><path class="outline" fill="#A5ABB6" stroke="none" d="M 25 0.5 L 38.98417213664169 0.5 L 38.98417213664169 -0.5 L 25 -0.5 Z M 74.75760963664169 0.5 L 88.74178177328338 0.5 L 88.74178177328338 3.5 L 95.74178177328338 0 L 88.74178177328338 -3.5 L 88.74178177328338 -0.5 L 74.75760963664169 -0.5 Z"/><text text-anchor="middle" pointer-events="none" font-size="8px" fill="#000000" x="56.87089088664169" y="3" transform="rotate(180 56.87089088664169 0)" font-family="sans-serif">WROTE</text></g><g class="relationship" transform="translate(165.1553745815 -6.021593286956898) rotate(486.4185121607776)"><path class="outline" fill="#A5ABB6" stroke="none" d="M 25 0.5 L 33.864618322967615 0.5 L 33.864618322967615 -0.5 L 25 -0.5 Z M 79.42711832296762 0.5 L 88.29173664593523 0.5 L 88.29173664593523 3.5 L 95.29173664593523 0 L 88.29173664593523 -3.5 L 88.29173664593523 -0.5 L 79.42711832296762 -0.5 Z"/><text text-anchor="middle" pointer-events="none" font-size="8px" fill="#000000" x="56.645868322967615" y="3" transform="rotate(180 56.645868322967615 0)" font-family="sans-serif">ACTED_IN</text></g><g class="relationship" transform="translate(71.05326018445079 -26.644255777484222) rotate(439.06443539331326)"><path class="outline" fill="#A5ABB6" stroke="none" d="M 25 0.5 L 33.515422047115884 0.5 L 33.515422047115884 -0.5 L 25 -0.5 Z M 79.07792204711589 0.5 L 87.59334409423177 0.5 L 87.59334409423177 3.5 L 94.59334409423177 0 L 87.59334409423177 -3.5 L 87.59334409423177 -0.5 L 79.07792204711589 -0.5 Z"/><text text-anchor="middle" pointer-events="none" font-size="8px" fill="#000000" x="56.296672047115884" y="3" font-family="sans-serif">ACTED_IN</text></g><g class="relationship" transform="translate(-7.505581690106631 27.179964253744345) rotate(392.13481777799655)"><path class="outline" fill="#A5ABB6" stroke="none" d="M 25 0.5 L 33.50053258005536 0.5 L 33.50053258005536 -0.5 L 25 -0.5 Z M 79.06303258005536 0.5 L 87.56356516011073 0.5 L 87.56356516011073 3.5 L 94.56356516011073 0 L 87.56356516011073 -3.5 L 87.56356516011073 -0.5 L 79.06303258005536 -0.5 Z"/><text text-anchor="middle" pointer-events="none" font-size="8px" fill="#000000" x="56.28178258005536" y="3" font-family="sans-serif">ACTED_IN</text></g><g class="relationship" transform="translate(-22.24597419118723 122.40788104177439) rotate(344.74592072759697)"><path class="outline" fill="#A5ABB6" stroke="none" d="M 25 0.5 L 38.72442173937976 0.5 L 38.72442173937976 -0.5 L 25 -0.5 Z M 74.49785923937975 0.5 L 88.22228097875951 0.5 L 88.22228097875951 3.5 L 95.22228097875951 0 L 88.22228097875951 -3.5 L 88.22228097875951 -0.5 L 74.49785923937975 -0.5 Z"/><text text-anchor="middle" pointer-events="none" font-size="8px" fill="#000000" x="56.61114048937976" y="3" font-family="sans-serif">WROTE</text></g><g class="relationship" transform="translate(36.63133737772742 197.0833644170309) rotate(298.245449527716)"><path class="outline" fill="#A5ABB6" stroke="none" d="M 25 0.5 L 38.95074041828515 0.5 L 38.95074041828515 -0.5 L 25 -0.5 Z M 74.72417791828515 0.5 L 88.6749183365703 0.5 L 88.6749183365703 3.5 L 95.6749183365703 0 L 88.6749183365703 -3.5 L 88.6749183365703 -0.5 L 74.72417791828515 -0.5 Z"/><text text-anchor="middle" pointer-events="none" font-size="8px" fill="#000000" x="56.83745916828515" y="3" font-family="sans-serif">WROTE</text></g></g><g class="layer nodes"><g class="node" transform="translate(123.21822908318663,207.58311053219197)"><circle class="outline" cx="0" cy="0" r="25" fill="#F79767" stroke="#f36924" stroke-width="2px"/><text text-anchor="middle" pointer-events="none" font-family="sans-serif" dy="1.5625" font-size="25" fill="#FFFFFF"/><text text-anchor="middle" pointer-events="none" font-family="sans-serif" dy="1.5625" font-size="25" fill="#FFFFFF"/><text text-anchor="middle" pointer-events="none" x="0" y="0" font-size="10px" fill="#FFFFFF" font-family="sans-serif"> Hugo</text><text text-anchor="middle" pointer-events="none" x="0" y="10" font-size="10px" fill="#FFFFFF" font-family="sans-serif"> Weaving</text></g><g class="node" transform="translate(192.1275100127995,160.34769685107173)"><circle class="outline" cx="0" cy="0" r="25" fill="#F79767" stroke="#f36924" stroke-width="2px"/><text text-anchor="middle" pointer-events="none" font-family="sans-serif" dy="1.5625" font-size="25" fill="#FFFFFF"/><text text-anchor="middle" pointer-events="none" font-family="sans-serif" dy="1.5625" font-size="25" fill="#FFFFFF"/><text text-anchor="middle" pointer-events="none" x="0" y="0" font-size="10px" fill="#FFFFFF" font-family="sans-serif"> Joe</text><text text-anchor="middle" pointer-events="none" x="0" y="10" font-size="10px" fill="#FFFFFF" font-family="sans-serif"> Johnston</text></g><g class="node" transform="translate(213.55015004645645,75.8015904755245)"><circle class="outline" cx="0" cy="0" r="25" fill="#F79767" stroke="#f36924" stroke-width="2px"/><text text-anchor="middle" pointer-events="none" font-family="sans-serif" dy="1.5625" font-size="25" fill="#FFFFFF"/><text text-anchor="middle" pointer-events="none" font-family="sans-serif" dy="1.5625" font-size="25" fill="#FFFFFF"/><text text-anchor="middle" pointer-events="none" x="0" y="0" font-size="10px" fill="#FFFFFF" font-family="sans-serif"> Joe</text><text text-anchor="middle" pointer-events="none" x="0" y="10" font-size="10px" fill="#FFFFFF" font-family="sans-serif"> Simon</text></g><g class="node" transform="translate(93.74070684666191,90.77741051792587)"><circle class="outline" cx="0" cy="0" r="25" fill="#57C7E3" stroke="#23b3d7" stroke-width="2px"/><text text-anchor="middle" pointer-events="none" font-family="sans-serif" dy="1.5625" font-size="25" fill="#2A2C34"/><text text-anchor="middle" pointer-events="none" font-family="sans-serif" dy="1.5625" font-size="25" fill="#2A2C34"/><text text-anchor="middle" pointer-events="none" font-family="sans-serif" dy="1.5625" font-size="25" fill="#2A2C34"/><text text-anchor="middle" pointer-events="none" x="0" y="-5" font-size="10px" fill="#2A2C34" font-family="sans-serif"> Captain</text><text text-anchor="middle" pointer-events="none" x="0" y="5" font-size="10px" fill="#2A2C34" font-family="sans-serif"> America:</text><text text-anchor="middle" pointer-events="none" x="0" y="15" font-size="10px" fill="#2A2C34" font-family="sans-serif"> The Fi…</text></g><g class="node" transform="translate(165.1553745815,-6.021593286956898)"><circle class="outline" cx="0" cy="0" r="25" fill="#F79767" stroke="#f36924" stroke-width="2px"/><text text-anchor="middle" pointer-events="none" font-family="sans-serif" dy="1.5625" font-size="25" fill="#FFFFFF"/><text text-anchor="middle" pointer-events="none" font-family="sans-serif" dy="1.5625" font-size="25" fill="#FFFFFF"/><text text-anchor="middle" pointer-events="none" x="0" y="0" font-size="10px" fill="#FFFFFF" font-family="sans-serif"> Hayley</text><text text-anchor="middle" pointer-events="none" x="0" y="10" font-size="10px" fill="#FFFFFF" font-family="sans-serif"> Atwell</text></g><g class="node" transform="translate(71.05326018445079,-26.644255777484222)"><circle class="outline" cx="0" cy="0" r="25" fill="#F79767" stroke="#f36924" stroke-width="2px"/><text text-anchor="middle" pointer-events="none" font-family="sans-serif" dy="1.5625" font-size="25" fill="#FFFFFF"/><text text-anchor="middle" pointer-events="none" font-family="sans-serif" dy="1.5625" font-size="25" fill="#FFFFFF"/><text text-anchor="middle" pointer-events="none" font-family="sans-serif" dy="1.5625" font-size="25" fill="#FFFFFF"/><text text-anchor="middle" pointer-events="none" x="0" y="-5" font-size="10px" fill="#FFFFFF" font-family="sans-serif"> Samuel</text><text text-anchor="middle" pointer-events="none" x="0" y="5" font-size="10px" fill="#FFFFFF" font-family="sans-serif"> L.</text><text text-anchor="middle" pointer-events="none" x="0" y="15" font-size="10px" fill="#FFFFFF" font-family="sans-serif"> Jackson</text></g><g class="node" transform="translate(-7.505581690106631,27.179964253744345)"><circle class="outline" cx="0" cy="0" r="25" fill="#F79767" stroke="#f36924" stroke-width="2px"/><text text-anchor="middle" pointer-events="none" font-family="sans-serif" dy="1.5625" font-size="25" fill="#FFFFFF"/><text text-anchor="middle" pointer-events="none" font-family="sans-serif" dy="1.5625" font-size="25" fill="#FFFFFF"/><text text-anchor="middle" pointer-events="none" x="0" y="0" font-size="10px" fill="#FFFFFF" font-family="sans-serif"> Chris</text><text text-anchor="middle" pointer-events="none" x="0" y="10" font-size="10px" fill="#FFFFFF" font-family="sans-serif"> Evans</text></g><g class="node" transform="translate(-22.24597419118723,122.40788104177439)"><circle class="outline" cx="0" cy="0" r="25" fill="#F79767" stroke="#f36924" stroke-width="2px"/><text text-anchor="middle" pointer-events="none" font-family="sans-serif" dy="1.5625" font-size="25" fill="#FFFFFF"/><text text-anchor="middle" pointer-events="none" font-family="sans-serif" dy="1.5625" font-size="25" fill="#FFFFFF"/><text text-anchor="middle" pointer-events="none" x="0" y="0" font-size="10px" fill="#FFFFFF" font-family="sans-serif"> Stephen</text><text text-anchor="middle" pointer-events="none" x="0" y="10" font-size="10px" fill="#FFFFFF" font-family="sans-serif"> McFeely</text></g><g class="node" transform="translate(36.63133737772742,197.0833644170309)"><circle class="outline" cx="0" cy="0" r="25" fill="#F79767" stroke="#f36924" stroke-width="2px"/><text text-anchor="middle" pointer-events="none" font-family="sans-serif" dy="1.5625" font-size="25" fill="#FFFFFF"/><text text-anchor="middle" pointer-events="none" x="0" y="5" font-size="10px" fill="#FFFFFF" font-family="sans-serif"> Christop…</text></g></g></svg>