<svg xmlns="http://www.w3.org/2000/svg" width="397.7682800292969" height="366.2752990722656" viewBox="-90.644287109375 -77.6706314086914 397.7682800292969 366.2752990722656"><title>Neo4j Graph Visualization</title><desc>Created using Neo4j (http://www.neo4j.com/)</desc><g class="layer relationships"><g class="relationship" transform="translate(136.06258828372557 259.6046595113524) rotate(331.1991762805574)"><path class="outline" fill="#A5ABB6" stroke="none" d="M 21.40063509461097,12.933012701892217 L 21.90063509461097,12.06698729810778 A 57.694144501569774 57.694144501569774 0 0 0 24.29406513594715,13.374403623634358 L 23.835549935869455,14.263090188907917 A 58.694144501569774 58.694144501569774 0 0 1 21.40063509461097,12.933012701892217 Z M 74.33081975214412,15.850317195485943 L 73.92902307196391,14.9345882902983 A 57.694144501569774 57.694144501569774 0 0 0 76.39983952983911,13.78007071030357 L 75.06597112398667,11.092916997567984 L 82.89217626053089,11.115570048770447 L 78.17833073764238,17.36294232728435 L 76.84446233178994,14.675788614548765 A 58.694144501569774 58.694144501569774 0 0 1 74.33081975214412,15.850317195485943"/><text text-anchor="middle" pointer-events="none" font-size="8px" fill="#000000" x="48.91938321978709" y="23.267809083573688" font-family="sans-serif">PRODUCED</text></g><g class="relationship" transform="translate(136.06258828372557 259.6046595113524) rotate(331.1991762805574)"><path class="outline" fill="#A5ABB6" stroke="none" d="M 25 0.5 L 25.697249433330406 0.5 L 25.697249433330406 -0.5 L 25 -0.5 Z M 72.5878744333304 0.5 L 73.28512386666081 0.5 L 73.28512386666081 3.5 L 80.28512386666081 0 L 73.28512386666081 -3.5 L 73.28512386666081 -0.5 L 72.5878744333304 -0.5 Z"/><text text-anchor="middle" pointer-events="none" font-size="8px" fill="#000000" x="49.142561933330406" y="3" font-family="sans-serif">DIRECTED</text></g><g class="relationship" transform="translate(136.06258828372557 259.6046595113524) rotate(331.1991762805574)"><path class="outline" fill="#A5ABB6" stroke="none" d="M 21.40063509461097,-12.933012701892217 L 21.90063509461097,-12.06698729810778 A 57.694144501569774 57.694144501569774 0 0 1 31.57351671556332,-16.517139807712233 L 31.24117465909499,-17.460298732550676 A 58.694144501569774 58.694144501569774 0 0 0 21.40063509461097,-12.933012701892217 Z M 66.73901628569273,-18.57610884922039 L 66.46656476474298,-17.613939337786896 A 57.694144501569774 57.694144501569774 0 0 1 76.39983952983911,-13.78007071030357 L 75.06597112398667,-11.092916997567984 L 82.89217626053089,-11.115570048770447 L 78.17833073764238,-17.36294232728435 L 76.84446233178994,-14.675788614548765 A 58.694144501569774 58.694144501569774 0 0 0 66.73901628569273,-18.57610884922039"/><text text-anchor="middle" pointer-events="none" font-size="8px" fill="#000000" x="48.919383219787086" y="-17.267809083573688" font-family="sans-serif">WROTE</text></g><g class="relationship" transform="translate(244.12397464136214 15.631887724563502) rotate(192.40208414999802)"><path class="outline" fill="#A5ABB6" stroke="none" d="M 24.018736134675446,6.953439040707552 L 24.277555179777966,5.987513214418485 A 100.39390026987306 100.39390026987306 0 0 0 25.55193198582437,6.320037684277452 L 25.305806707998755,7.289275708508484 A 101.39390026987306 101.39390026987306 0 0 1 24.018736134675446,6.953439040707552 Z M 71.99964820152043,8.050667488418782 L 71.7852542432851,7.073920217794395 A 100.39390026987306 100.39390026987306 0 0 0 73.06979498284093,6.783121567066427 L 72.38822808465933,3.8615694858426273 L 80.00034432206007,5.679724151513328 L 73.97855084708307,10.678524342031492 L 73.29698394890147,7.756972260807693 A 101.39390026987306 101.39390026987306 0 0 1 71.99964820152043,8.050667488418782"/><text text-anchor="middle" pointer-events="none" font-size="8px" fill="#000000" x="48.61644699376249" y="12.894941896028826" transform="rotate(180 48.61644699376249 9.894941896028826)" font-family="sans-serif">DIRECTED</text></g><g class="relationship" transform="translate(244.12397464136214 15.631887724563502) rotate(192.40208414999802)"><path class="outline" fill="#A5ABB6" stroke="none" d="M 24.018736134675446,-6.953439040707552 L 24.277555179777966,-5.987513214418485 A 100.39390026987306 100.39390026987306 0 0 1 30.94761222062678,-7.5330416644385 L 30.755232043054246,-8.514362135679761 A 101.39390026987306 101.39390026987306 0 0 0 24.018736134675446,-6.953439040707552 Z M 66.51317795575999,-9.097432733719742 L 66.3528944541809,-8.110361713416978 A 100.39390026987306 100.39390026987306 0 0 1 73.06979498284093,-6.783121567066427 L 72.38822808465933,-3.8615694858426273 L 80.00034432206007,-5.679724151513328 L 73.97855084708307,-10.678524342031492 L 73.29698394890147,-7.756972260807693 A 101.39390026987306 101.39390026987306 0 0 0 66.51317795575999,-9.097432733719742"/><text text-anchor="middle" pointer-events="none" font-size="8px" fill="#000000" x="48.61644699376246" y="-6.894941896028826" transform="rotate(180 48.61644699376246 -9.894941896028826)" font-family="sans-serif">WROTE</text></g><g class="relationship" transform="translate(46.637718453477255 -48.67063073494114) rotate(383.668617575126)"><path class="outline" fill="#A5ABB6" stroke="none" d="M 24.018736134675446,6.953439040707552 L 24.277555179777966,5.987513214418485 A 100.40566611166304 100.40566611166304 0 0 0 25.554802092141777,6.320767514228436 L 25.308703911924944,7.290012419138421 A 101.40566611166304 101.40566611166304 0 0 1 24.018736134675446,6.953439040707552 Z M 72.00261756222258,8.051365116899575 L 71.78824922768982,7.074612222279001 A 100.40566611166304 100.40566611166304 0 0 0 73.07568184026216,6.783175485456543 L 72.3941099055903,3.861624579196709 L 80.00622927731375,5.679766122265505 L 73.98444441982464,10.678576693802988 L 73.30287248515278,7.757025787543154 A 101.40566611166304 101.40566611166304 0 0 1 72.00261756222258,8.051365116899575"/><text text-anchor="middle" pointer-events="none" font-size="8px" fill="#000000" x="48.61938735343605" y="12.89534266149559" font-family="sans-serif">DIRECTED</text></g><g class="relationship" transform="translate(46.637718453477255 -48.67063073494114) rotate(383.668617575126)"><path class="outline" fill="#A5ABB6" stroke="none" d="M 24.018736134675446,-6.953439040707552 L 24.277555179777966,-5.987513214418485 A 100.40566611166304 100.40566611166304 0 0 1 30.950515634273714,-7.533638715179819 L 30.758156588022995,-8.51496332881463 A 101.40566611166304 101.40566611166304 0 0 0 24.018736134675446,-6.953439040707552 Z M 66.51612621258998,-9.098003483555487 L 66.35586226452801,-8.110929288293761 A 100.40566611166304 100.40566611166304 0 0 1 73.07568184026216,-6.783175485456543 L 72.3941099055903,-3.861624579196709 L 80.00622927731375,-5.679766122265505 L 73.98444441982464,-10.678576693802988 L 73.30287248515278,-7.757025787543154 A 101.40566611166304 101.40566611166304 0 0 0 66.51612621258998,-9.098003483555487"/><text text-anchor="middle" pointer-events="none" font-size="8px" fill="#000000" x="48.619387353436025" y="-6.89534266149559" font-family="sans-serif">WROTE</text></g><g class="relationship" transform="translate(-61.644286890535895 95.06396264212617) rotate(431.99529558799907)"><path class="outline" fill="#A5ABB6" stroke="none" d="M 21.40063509461097,12.933012701892217 L 21.90063509461097,12.06698729810778 A 57.217569001065655 57.217569001065655 0 0 0 31.34969522065404,16.42945071549086 L 31.01483785587972,17.371719544040545 A 58.217569001065655 58.217569001065655 0 0 1 21.40063509461097,12.933012701892217 Z M 66.5057037227448,18.49193772478307 L 66.23093642479547,17.530426969784656 A 57.217569001065655 57.217569001065655 0 0 0 75.93630356750786,13.772545524243602 L 74.60313521993841,11.085044425259843 L 82.42933418973155,11.10973622974549 L 77.71386136426715,17.355880322888616 L 76.38069301669769,14.668379223904855 A 58.217569001065655 58.217569001065655 0 0 1 66.5057037227448,18.49193772478307"/><text text-anchor="middle" pointer-events="none" font-size="8px" fill="#000000" x="48.68855427021578" y="23.2039586564442" font-family="sans-serif">WROTE</text></g><g class="relationship" transform="translate(-61.644286890535895 95.06396264212617) rotate(431.99529558799907)"><path class="outline" fill="#A5ABB6" stroke="none" d="M 25 0.5 L 25.46727584063143 0.5 L 25.46727584063143 -0.5 L 25 -0.5 Z M 72.35790084063143 0.5 L 72.82517668126286 0.5 L 72.82517668126286 3.5 L 79.82517668126286 0 L 72.82517668126286 -3.5 L 72.82517668126286 -0.5 L 72.35790084063143 -0.5 Z"/><text text-anchor="middle" pointer-events="none" font-size="8px" fill="#000000" x="48.91258834063143" y="3" font-family="sans-serif">DIRECTED</text></g><g class="relationship" transform="translate(-61.644286890535895 95.06396264212617) rotate(431.99529558799907)"><path class="outline" fill="#A5ABB6" stroke="none" d="M 21.40063509461097,-12.933012701892217 L 21.90063509461097,-12.06698729810778 A 57.217569001065655 57.217569001065655 0 0 1 24.0810667855313,-13.263442816679316 L 23.619174515883838,-14.150378852275978 A 58.217569001065655 58.217569001065655 0 0 0 21.40063509461097,-12.933012701892217 Z M 74.08979733215574,-15.743411535228098 L 73.68475847289695,-14.829112064326836 A 57.217569001065655 57.217569001065655 0 0 1 75.93630356750786,-13.772545524243602 L 74.60313521993841,-11.085044425259843 L 82.42933418973155,-11.10973622974549 L 77.71386136426715,-17.355880322888616 L 76.38069301669769,-14.668379223904855 A 58.217569001065655 58.217569001065655 0 0 0 74.08979733215574,-15.743411535228098"/><text text-anchor="middle" pointer-events="none" font-size="8px" fill="#000000" x="48.68855427021578" y="-17.2039586564442" font-family="sans-serif">PRODUCED</text></g></g><g class="layer nodes"><g class="node" transform="translate(136.06258828372557,259.6046595113524)"><circle class="outline" cx="0" cy="0" r="25" fill="#F79767" stroke="#f36924" stroke-width="2px"/><text text-anchor="middle" pointer-events="none" font-family="sans-serif" dy="1.5625" font-size="25" fill="#FFFFFF"/><text text-anchor="middle" pointer-events="none" font-family="sans-serif" dy="1.5625" font-size="25" fill="#FFFFFF"/><text text-anchor="middle" pointer-events="none" x="0" y="0" font-size="10px" fill="#FFFFFF" font-family="sans-serif"> Cameron</text><text text-anchor="middle" pointer-events="none" x="0" y="10" font-size="10px" fill="#FFFFFF" font-family="sans-serif"> Crowe</text></g><g class="node" transform="translate(228.32391642431168,208.88183784937064)"><circle class="outline" cx="0" cy="0" r="25" fill="#57C7E3" stroke="#23b3d7" stroke-width="2px"/><text text-anchor="middle" pointer-events="none" font-family="sans-serif" dy="1.5625" font-size="25" fill="#2A2C34"/><text text-anchor="middle" pointer-events="none" font-family="sans-serif" dy="1.5625" font-size="25" fill="#2A2C34"/><text text-anchor="middle" pointer-events="none" x="0" y="0" font-size="10px" fill="#2A2C34" font-family="sans-serif"> Jerry</text><text text-anchor="middle" pointer-events="none" x="0" y="10" font-size="10px" fill="#2A2C34" font-family="sans-serif"> Maguire</text></g><g class="node selected" transform="translate(244.12397464136214,15.631887724563502)"><circle class="outline" cx="0" cy="0" r="25" fill="#F79767" stroke="#f36924" stroke-width="2px"/><text text-anchor="middle" pointer-events="none" font-family="sans-serif" dy="1.5625" font-size="25" fill="#FFFFFF"/><text text-anchor="middle" pointer-events="none" font-family="sans-serif" dy="1.5625" font-size="25" fill="#FFFFFF"/><text text-anchor="middle" pointer-events="none" x="0" y="0" font-size="10px" fill="#FFFFFF" font-family="sans-serif"> Lana</text><text text-anchor="middle" pointer-events="none" x="0" y="10" font-size="10px" fill="#FFFFFF" font-family="sans-serif"> Wacho…</text></g><g class="node" transform="translate(142.21234681429095,-6.778723149001184)"><circle class="outline" cx="0" cy="0" r="25" fill="#57C7E3" stroke="#23b3d7" stroke-width="2px"/><text text-anchor="middle" pointer-events="none" font-family="sans-serif" dy="1.5625" font-size="25" fill="#2A2C34"/><text text-anchor="middle" pointer-events="none" font-family="sans-serif" dy="1.5625" font-size="25" fill="#2A2C34"/><text text-anchor="middle" pointer-events="none" x="0" y="0" font-size="10px" fill="#2A2C34" font-family="sans-serif"> Speed</text><text text-anchor="middle" pointer-events="none" x="0" y="10" font-size="10px" fill="#2A2C34" font-family="sans-serif"> Racer</text></g><g class="node" transform="translate(46.637718453477255,-48.67063073494114)"><circle class="outline" cx="0" cy="0" r="25" fill="#F79767" stroke="#f36924" stroke-width="2px"/><text text-anchor="middle" pointer-events="none" font-family="sans-serif" dy="1.5625" font-size="25" fill="#FFFFFF"/><text text-anchor="middle" pointer-events="none" font-family="sans-serif" dy="1.5625" font-size="25" fill="#FFFFFF"/><text text-anchor="middle" pointer-events="none" x="0" y="0" font-size="10px" fill="#FFFFFF" font-family="sans-serif"> Lilly</text><text text-anchor="middle" pointer-events="none" x="0" y="10" font-size="10px" fill="#FFFFFF" font-family="sans-serif"> Wacho…</text></g><g class="node" transform="translate(-61.644286890535895,95.06396264212617)"><circle class="outline" cx="0" cy="0" r="25" fill="#F79767" stroke="#f36924" stroke-width="2px"/><text text-anchor="middle" pointer-events="none" font-family="sans-serif" dy="1.5625" font-size="25" fill="#FFFFFF"/><text text-anchor="middle" pointer-events="none" font-family="sans-serif" dy="1.5625" font-size="25" fill="#FFFFFF"/><text text-anchor="middle" pointer-events="none" x="0" y="0" font-size="10px" fill="#FFFFFF" font-family="sans-serif"> Nancy</text><text text-anchor="middle" pointer-events="none" x="0" y="10" font-size="10px" fill="#FFFFFF" font-family="sans-serif"> Meyers</text></g><g class="node" transform="translate(-29.243340289083662,194.75596997264296)"><circle class="outline" cx="0" cy="0" r="25" fill="#57C7E3" stroke="#23b3d7" stroke-width="2px"/><text text-anchor="middle" pointer-events="none" font-family="sans-serif" dy="1.5625" font-size="25" fill="#2A2C34"/><text text-anchor="middle" pointer-events="none" x="0" y="5" font-size="10px" fill="#2A2C34" font-family="sans-serif"> Somethi…</text></g></g></svg>